<?xml version="1.0" standalone="no"?>
<!DOCTYPE svg PUBLIC "-//W3C//DTD SVG 1.1//EN" "http://www.w3.org/Graphics/SVG/1.1/DTD/svg11.dtd" >
<svg xmlns="http://www.w3.org/2000/svg">
<metadata></metadata>
<defs>
<font id="tescobold" horiz-adv-x="1094" >
<font-face units-per-em="2048" ascent="1638" descent="-410" />
<missing-glyph horiz-adv-x="471" />
<glyph horiz-adv-x="0" />
<glyph unicode="&#xd;" horiz-adv-x="1024" />
<glyph unicode=" "  horiz-adv-x="471" />
<glyph unicode="&#x09;" horiz-adv-x="471" />
<glyph unicode="&#xa0;" horiz-adv-x="471" />
<glyph unicode="!" horiz-adv-x="573" d="M463 137q0 -33 -12.5 -62.5t-35.5 -51.5t-55.5 -35t-72.5 -13t-72.5 13t-55.5 35t-35.5 51.5t-12.5 62.5t12.5 63t35.5 53t55.5 36.5t72.5 13.5t72.5 -13.5t55.5 -36.5t35.5 -53t12.5 -63zM412 399h-219q-31 0 -31 27l-12 846q0 48 -9.5 80.5t-21.5 52.5h278q31 0 31 -27 z" />
<glyph unicode="&#x22;" horiz-adv-x="1022" d="M410 799h-211q-31 0 -31 26l-18 447q-2 48 -10.5 80.5t-20.5 52.5h280q31 0 31 -27zM860 799h-211q-31 0 -31 26l-18 447q-2 48 -10 80.5t-21 52.5h281q31 0 31 -27z" />
<glyph unicode="#" horiz-adv-x="1221" d="M516 791l-31 -201h222l30 201h-221zM956 791l-30 -201h141q15 0 22 -4.5t7 -18.5v-176h-201l-59 -391h-185q-15 0 -23.5 6.5t-6.5 20.5l55 364h-221l-60 -391h-186q-34 0 -31 27l55 364h-139q-15 0 -21.5 4.5t-6.5 18.5v176h198l31 201h-143q-16 0 -22.5 4t-6.5 18v176 h201l55 363q2 14 8.5 21t22.5 7h204q-12 -20 -17 -52.5t-13 -80.5l-39 -258h221l55 363q2 14 8.5 21t22.5 7h203q-13 -20 -18 -52.5t-13 -80.5l-39 -258h139q16 0 22.5 -4t6.5 -18v-176h-197z" />
<glyph unicode="$" horiz-adv-x="1149" d="M1055 379q0 -81 -24.5 -148t-71.5 -119t-117.5 -86t-161.5 -49v-155h-178q-31 0 -31 26v121q-126 8 -229.5 41t-186.5 74l86 223q37 -20 78.5 -39t88 -34t97.5 -24t107 -9q57 0 103 8.5t78 27t49.5 49.5t17.5 76q0 43 -16.5 74.5t-48.5 56t-79 45t-108 42.5 q-76 27 -148 59.5t-127.5 80t-89.5 115.5t-34 166q0 65 21 129t65.5 118t112.5 93.5t163 55.5v135h178q31 0 31 -27v-100q72 -6 128 -18t79 -21q13 -5 21 -10t13 -11t7 -14.5t4 -21.5l24 -215q-94 43 -182.5 63.5t-157.5 20.5q-45 0 -87 -8t-74.5 -27t-52 -51.5t-19.5 -81.5 q0 -40 20.5 -70t56.5 -54t85.5 -44t107.5 -41q78 -28 150.5 -61t128.5 -81t89.5 -115.5t33.5 -164.5z" />
<glyph unicode="%" horiz-adv-x="2085" d="M614 977q0 81 -10.5 131t-28.5 77.5t-42 36.5t-50 9t-49.5 -9t-41.5 -36.5t-29 -77.5t-11 -131t11 -130.5t29 -76.5t41.5 -36t49.5 -9t50 9t42 36t28.5 76.5t10.5 130.5zM1733 401q0 81 -11 131t-29 77.5t-41.5 36.5t-49.5 9t-50 -9t-42 -36.5t-29 -77.5t-11 -131 t11 -130.5t29 -76.5t42 -35.5t50 -8.5t49.5 8.5t41.5 35.5t29 76.5t11 130.5zM854 977q0 -99 -24.5 -178t-72 -134t-116.5 -84.5t-158 -29.5t-158 29.5t-116 84.5t-71.5 134t-24.5 178t24.5 178t71.5 134.5t116 85.5t158 30t158 -30t116.5 -85.5t72 -134.5t24.5 -178z M801 -25h-228q-11 0 -15.5 8t1.5 23l725 1399h215q26 0 31 -10.5t-6 -30.5zM1972 401q0 -99 -24.5 -178t-71.5 -134t-116 -84.5t-158 -29.5t-158.5 29.5t-116.5 84.5t-71.5 134t-24.5 178t24.5 178.5t71.5 135t116.5 85t158.5 29.5t158 -29.5t116 -85t71.5 -135t24.5 -178.5 z" />
<glyph unicode="&#x26;" horiz-adv-x="1393" d="M508 631q-75 -37 -115.5 -89.5t-40.5 -135.5q0 -50 17.5 -88t48 -64t72.5 -39.5t90 -13.5q40 0 71.5 5t58.5 14t50.5 22.5t46.5 31.5zM793 1114q0 59 -38.5 98t-113.5 39q-35 0 -63.5 -10.5t-49 -29t-32 -45t-11.5 -58.5q0 -29 10 -56.5t26.5 -53.5t37 -49.5t41.5 -45.5 q35 16 69.5 36.5t62 46t44.5 57.5t17 71zM1071 0q-12 0 -29.5 6.5t-29.5 22.5l-64 75q-81 -63 -188 -100t-225 -37q-102 0 -188 31.5t-148.5 88t-97.5 134.5t-35 170q0 81 20 144t57.5 113t91 90t121.5 75q-18 21 -39 49.5t-39 65t-30 81t-12 97.5q0 67 27.5 127.5t79 106 t127 72t171.5 26.5q105 0 180 -26.5t123 -71t71 -102.5t23 -120q0 -47 -8.5 -85.5t-24 -71t-38 -59t-49.5 -50.5q-15 -12 -35.5 -27.5t-43 -31t-44 -29.5t-37.5 -23l241 -290q45 57 85 121t71 137l201 -95q-40 -92 -94.5 -176.5t-122.5 -156.5l233 -281h-301z" />
<glyph unicode="'" horiz-adv-x="575" d="M414 799h-215q-31 0 -31 26l-18 447q-2 48 -10.5 80.5t-20.5 52.5h284q31 0 31 -27z" />
<glyph unicode="(" horiz-adv-x="760" d="M616 -287q-120 54 -214 135.5t-158.5 188t-98.5 238t-34 284.5q0 154 34 285t98.5 238t158.5 188t214 135l123 -207q-84 -50 -147 -111t-105.5 -138.5t-64 -173.5t-21.5 -216t21.5 -216t64 -173.5t105.5 -138.5t147 -111z" />
<glyph unicode=")" horiz-adv-x="760" d="M649 559q0 -153 -34 -284.5t-98.5 -238t-158.5 -188t-215 -135.5l-123 207q84 50 147.5 111t105.5 138.5t63.5 173.5t21.5 216t-21.5 216t-63.5 173.5t-105.5 138.5t-147.5 111l123 207q121 -54 215 -135t158.5 -188t98.5 -238t34 -285z" />
<glyph unicode="*" horiz-adv-x="1020" d="M662 954l167 -209l-174 -127l-145 220l-145 -220l-175 127l168 209l-258 74l64 203l248 -92l-11 135q-3 48 -10.5 79.5t-19.5 51.5h217q30 0 30 -27l-12 -239l248 92l66 -203z" />
<glyph unicode="+" d="M678 567v-399h-229q-29 0 -29 27v372h-361q-15 0 -22.5 5.5t-7.5 19.5v217h391v393h227q31 0 31 -26v-367h360q16 0 22.5 -4.5t6.5 -18.5v-219h-389z" />
<glyph unicode="," horiz-adv-x="559" d="M459 94q0 -78 -24.5 -153.5t-58 -138t-68 -108.5t-54.5 -65l-129 84q15 20 34.5 50t37.5 65t32 74t19 78q-41 9 -68 26t-43.5 38t-23.5 45t-7 48q0 34 12 64t34.5 52.5t55 36t73.5 13.5q39 0 71.5 -13.5t56.5 -40t37 -65.5t13 -90z" />
<glyph unicode="-" horiz-adv-x="760" d="M684 424v223q0 14 -6.5 18.5t-22.5 4.5h-579v-221q0 -14 7.5 -19.5t22.5 -5.5h578z" />
<glyph unicode="." horiz-adv-x="571" d="M461 137q0 -33 -12.5 -62.5t-35.5 -51.5t-55.5 -35t-72.5 -13t-72.5 13t-55.5 35t-35.5 51.5t-12.5 62.5t12.5 63t35.5 53t55.5 36.5t72.5 13.5t72.5 -13.5t55.5 -36.5t35.5 -53t12.5 -63z" />
<glyph unicode="/" horiz-adv-x="635" d="M618 1382q0 -6 -2 -14t-4 -14l-352 -1354h-217q-12 0 -20.5 6t-8.5 17q0 6 2 14t4 14l353 1354h217q12 0 20 -6t8 -17z" />
<glyph unicode="0" d="M758 688q0 148 -16.5 243t-45 150t-67 76t-82.5 21t-82.5 -21t-67 -76t-45 -150t-16.5 -243q0 -147 16.5 -241.5t45 -148.5t67 -74.5t82.5 -20.5t82.5 20.5t67 74.5t45 148.5t16.5 241.5zM1042 688q0 -168 -32 -300.5t-95 -224t-155.5 -140t-212.5 -48.5 q-121 0 -213.5 48.5t-155.5 140t-95 224t-32 300.5q0 170 32 303t95 225t155.5 140.5t213.5 48.5q120 0 212.5 -48.5t155.5 -140.5t95 -225t32 -303z" />
<glyph unicode="1" d="M541 0q-31 0 -31 27v995l-195 -180q-6 -5 -11 -8t-13 -3q-6 0 -11 3t-10 8l-131 151l445 387h168q30 0 30 -26v-1354h-241z" />
<glyph unicode="2" d="M88 0q-15 0 -22 4.5t-7 18.5v127l310 362q89 103 144.5 176.5t87 129t43 100.5t11.5 92q0 38 -13 68.5t-36.5 51.5t-55.5 32.5t-71 11.5q-32 0 -59 -6.5t-49.5 -17t-40.5 -24t-33 -26.5q-22 -19 -40.5 -41t-35.5 -43l-123 121q-9 9 -16.5 20.5t-7.5 24.5q0 14 10.5 29 t38.5 42q23 22 58 49t83 49.5t109 38t135 15.5q88 0 165.5 -23.5t135.5 -70.5t91.5 -116.5t33.5 -160.5q0 -86 -22.5 -160.5t-62 -144.5t-94.5 -139t-120 -144l-195 -223h379q48 0 80.5 9t56.5 24v-256h-868z" />
<glyph unicode="3" d="M967 444q0 -86 -22.5 -154t-62 -120.5t-92.5 -89t-113.5 -60t-126 -34.5t-128.5 -11q-66 0 -125 9t-108.5 23.5t-87.5 32t-62 34.5l82 209q27 -15 57 -29.5t65.5 -25t77 -17t91.5 -6.5q60 0 111 14t87.5 43t57 73.5t20.5 104.5q0 81 -44 131t-140 72q-15 4 -37 8 t-47.5 7.5t-53 5.5t-53.5 2h-8q-24 0 -24 26v144l319 331h-485q-31 0 -31 27v186h801q15 0 21.5 -4t6.5 -18v-164l-329 -350q74 -13 138 -36.5t112 -62.5q63 -52 98 -126t35 -175z" />
<glyph unicode="4" d="M629 1034l-324 -499h324v499zM874 326v-326h-217q-15 0 -21.5 4.5t-6.5 18.5v303h-545q-29 0 -29 26v176l576 852h215q15 0 21.5 -4t6.5 -18v-823h109q16 0 22.5 -7.5t8.5 -21.5l26 -180h-166z" />
<glyph unicode="5" d="M954 461q0 -89 -22 -159.5t-60 -124.5t-90 -92t-111.5 -62.5t-124 -36t-128.5 -11.5q-62 0 -119 9.5t-106 24t-87 32t-63 33.5l86 213q53 -31 118.5 -54.5t151.5 -23.5q59 0 110 15t88 46t58 78.5t21 112.5q0 67 -28.5 112t-78.5 73t-117 40t-145 12q-24 0 -39.5 -0.5 t-27 -1.5t-21 -1.5t-20.5 -0.5q-31 0 -31 27l33 659h700q17 0 27 -7.5t8 -24.5l-21 -195h-497l-10 -233q114 -5 214 -30t173.5 -78.5t116 -139t42.5 -211.5z" />
<glyph unicode="6" d="M784 446q0 122 -56.5 187t-166.5 65q-51 0 -91 -19t-68 -53.5t-43 -81.5t-15 -102q0 -115 56 -180t159 -65q51 0 93 17t71 49t45 78t16 105zM1053 463q0 -109 -37 -199t-102.5 -154t-155.5 -99.5t-195 -35.5t-195.5 35t-157 110.5t-104.5 193t-38 282.5q0 84 12.5 167 t37.5 161.5t62.5 149t87.5 128.5q80 92 190 146.5t255 54.5q49 0 91.5 -6.5t63.5 -14.5q16 -6 23 -11.5t12 -22.5l49 -193q-43 17 -88.5 25t-111.5 8q-134 0 -226 -72q-58 -46 -99 -120.5t-56 -174.5q51 47 115.5 69.5t152.5 22.5q81 0 155.5 -28.5t132 -84.5t92 -140.5 t34.5 -196.5z" />
<glyph unicode="7" d="M487 0h-239q-31 0 -31 18q0 7 1 10.5t3 8.5l484 1106h-609q-30 0 -30 26v211h907q15 0 21.5 -4t6.5 -18v-141z" />
<glyph unicode="8" d="M764 385q0 54 -19 93t-53 67.5t-81 48.5t-103 35q-95 -35 -144 -90.5t-49 -147.5q0 -54 17.5 -93t48 -65t72.5 -38.5t90 -12.5t89 13.5t70 39t45.5 63.5t16.5 87zM745 1034q0 44 -15.5 76.5t-41.5 54.5t-61 32.5t-74 10.5q-44 0 -80.5 -11.5t-63 -35t-41 -58t-14.5 -79.5 q0 -74 48 -121t145 -78q43 14 79.5 33t62.5 44.5t41 58t15 73.5zM1044 395q0 -98 -34 -175.5t-98 -132t-156 -83.5t-209 -29t-209 29t-156.5 82t-98.5 128.5t-34 168.5q0 51 13.5 101t41.5 95.5t71 84t101 65.5q-91 51 -135.5 127.5t-44.5 169.5q0 85 30.5 155t88.5 119.5 t142 77t190 27.5t189.5 -26t141.5 -74t88.5 -117t30.5 -154q0 -53 -14 -97.5t-39.5 -81.5t-60 -67t-76.5 -53q112 -55 174.5 -141.5t62.5 -198.5z" />
<glyph unicode="9" d="M748 942q0 54 -14.5 98.5t-42.5 76.5t-68.5 49.5t-92.5 17.5q-51 0 -92 -16.5t-69.5 -48t-44 -76t-15.5 -99.5q0 -57 15 -102.5t43.5 -77.5t69.5 -49t93 -17t93 17.5t68.5 50t42 77.5t14.5 99zM1028 815q0 -109 -14 -197t-37 -158.5t-52.5 -125.5t-61.5 -97.5 t-63.5 -73.5t-58.5 -54q-75 -65 -182 -100.5t-229 -35.5q-47 0 -83 5t-67 10l29 217q25 -5 47.5 -6.5t48.5 -1.5q97 0 170 28.5t125 79t82.5 119t42.5 149.5q-48 -46 -112 -71t-152 -25q-82 0 -158 28t-134 84.5t-93 140.5t-35 196q0 111 39 202t110 154q65 59 150.5 91 t187.5 32q113 0 201.5 -37t153.5 -106q72 -78 108.5 -191t36.5 -256z" />
<glyph unicode=":" horiz-adv-x="571" d="M461 137q0 -32 -12.5 -61.5t-35.5 -52t-55.5 -35.5t-72.5 -13t-72.5 13t-55.5 35.5t-35.5 52t-12.5 61.5q0 34 12.5 64t35.5 52.5t55.5 36t72.5 13.5t72.5 -13.5t55.5 -36t35.5 -52.5t12.5 -64zM461 801q0 -32 -12.5 -61.5t-35.5 -52t-55.5 -35.5t-72.5 -13t-72.5 13 t-55.5 35.5t-35.5 52t-12.5 61.5q0 34 12.5 64t35.5 52.5t55.5 36t72.5 13.5t72.5 -13.5t55.5 -36t35.5 -52.5t12.5 -64z" />
<glyph unicode=";" horiz-adv-x="571" d="M461 801q0 34 -12.5 64t-35.5 52.5t-55.5 36t-72.5 13.5t-72.5 -13.5t-55.5 -36t-35.5 -52.5t-12.5 -64q0 -32 12.5 -61.5t35.5 -52t55.5 -35.5t72.5 -13t72.5 13t55.5 35.5t35.5 52t12.5 61.5zM461 94q0 51 -13 90t-37 65.5t-56.5 40t-71.5 13.5q-41 0 -73 -13.5 t-54.5 -36t-34.5 -52.5t-12 -64q0 -24 6.5 -48t23 -45t43.5 -38t68 -26q-5 -39 -19 -78t-32 -74t-37.5 -65t-34.5 -50l129 -84q20 19 54.5 65t68 108.5t58 138t24.5 153.5z" />
<glyph unicode="&#x3c;" d="M59 555q-21 9 -26.5 17.5t-5.5 27.5v199l1038 420v-273l-703 -262l703 -260v-272z" />
<glyph unicode="=" d="M59 356q-15 0 -22.5 5.5t-7.5 19.5v217h1009q16 0 22.5 -4.5t6.5 -18.5v-219h-1008zM59 778q-15 0 -22.5 5.5t-7.5 19.5v217h1009q16 0 22.5 -4.5t6.5 -18.5v-219h-1008z" />
<glyph unicode="&#x3e;" d="M29 152v272l702 262l-702 260v273l1005 -404q22 -9 27.5 -17.5t5.5 -27.5v-199z" />
<glyph unicode="?" horiz-adv-x="1141" d="M702 137q0 -33 -12.5 -62.5t-35.5 -51.5t-55.5 -35t-72.5 -13t-72.5 13t-55.5 35t-35.5 51.5t-12.5 62.5t12.5 63t35.5 53t55.5 36.5t72.5 13.5t72.5 -13.5t55.5 -36.5t35.5 -53t12.5 -63zM971 1065q0 -65 -16 -116t-42.5 -93t-60 -77.5t-68.5 -67.5q-42 -40 -68 -70.5 t-40.5 -56.5t-19.5 -51.5t-5 -55.5v-78h-219q-31 0 -31 27v113q0 48 10.5 85.5t29 69.5t43 60t53.5 57q27 28 53 54.5t47 55t34 60t13 68.5q0 66 -40.5 99.5t-113.5 33.5q-37 0 -70 -9.5t-65 -29t-64.5 -50.5t-68.5 -73l-129 129q-9 9 -16.5 21t-7.5 24q0 14 9 26.5t21 26.5 q31 31 71.5 62t92 55.5t114.5 39.5t140 15q84 0 159.5 -23t132 -67.5t89.5 -110.5t33 -153z" />
<glyph unicode="@" horiz-adv-x="1995" d="M1186 793q-22 9 -49.5 14.5t-69.5 5.5t-91 -22.5t-91 -71.5t-69.5 -125.5t-27.5 -185.5q0 -55 10.5 -89t28 -53t39.5 -26t45 -7q57 0 104.5 30.5t84.5 84.5zM1884 694q0 -155 -39 -278t-109.5 -209t-169 -132t-216.5 -46q-91 0 -145.5 31t-69.5 83q-26 -31 -57.5 -52.5 t-64.5 -35t-67.5 -20t-66.5 -6.5q-75 0 -137 24t-105.5 70t-67.5 114t-24 156q0 123 36 235t106.5 197.5t173.5 136t237 50.5q112 0 202 -26t170 -71q-8 -8 -15 -20.5t-12 -26t-9 -26.5t-7 -23l-90 -459q-6 -27 -8 -44.5t-2 -28.5q0 -23 16.5 -40.5t40.5 -17.5q41 0 88 26 t86.5 83t66 148.5t26.5 222.5q0 100 -31 189t-101 155t-182.5 104.5t-275.5 38.5q-93 0 -182.5 -23t-169 -68.5t-146 -111.5t-115 -152.5t-75.5 -192t-27 -228.5q0 -126 41.5 -234t125.5 -187t212 -124t301 -45q60 0 121.5 4.5t118 12t105 17t83.5 19.5l55 -209 q-115 -34 -236.5 -46.5t-236.5 -12.5q-224 0 -396.5 57.5t-290 162.5t-178 253t-60.5 330q0 172 40 312.5t109 249.5t162.5 189t199.5 132t220 77t225 25q213 0 367 -55.5t254 -151.5t148 -225.5t48 -276.5z" />
<glyph unicode="A" horiz-adv-x="1296" d="M641 1137l-195 -586h375zM1028 0q-26 0 -33.5 8.5t-13.5 28.5l-92 293h-518l-113 -330h-225q-33 0 -33 20q0 7 1 14.5t7 22.5l416 1135q12 32 21.5 70t9.5 67q0 28 -5.5 46t-13.5 30h334q25 0 31 -21l495 -1384h-268z" />
<glyph unicode="B" horiz-adv-x="1311" d="M905 424q0 43 -14 79t-41.5 62.5t-67.5 41t-92 14.5h-246v-396h246q52 0 92 15t67.5 41.5t41.5 63t14 79.5zM831 1014q0 78 -46 122t-130 44h-211v-334h211q82 0 129 46t47 122zM1208 401q0 -85 -34 -158.5t-97 -127.5t-152 -84.5t-198 -30.5h-528q-31 0 -31 27v1245 q0 48 -9 80.5t-22 52.5h547q119 0 196 -24.5t128 -67.5q57 -48 86.5 -114t29.5 -140q0 -42 -9.5 -84.5t-29.5 -82.5t-50.5 -74.5t-73.5 -59.5q121 -45 184 -137t63 -220z" />
<glyph unicode="C" horiz-adv-x="1282" d="M1247 61q-27 -12 -73 -27.5t-104 -29.5t-125 -23.5t-134 -9.5q-169 0 -299.5 51t-219.5 146t-135 231t-46 306q0 154 45.5 287t131 231.5t208 154.5t276.5 56q61 0 113 -5.5t92 -13.5t67 -16.5t39 -14.5q14 -6 24 -11t16.5 -12t10 -17t5.5 -25l22 -232q-29 19 -67 36.5 t-82 31.5t-93.5 22.5t-101.5 8.5q-85 0 -159.5 -26.5t-129.5 -85t-86.5 -150.5t-31.5 -224q0 -126 34 -217.5t90.5 -151t130.5 -88t154 -28.5q112 0 200 23t148 49z" />
<glyph unicode="D" horiz-adv-x="1477" d="M1065 702q0 114 -30 200.5t-81 145t-119 88t-143 29.5h-241v-925h241q75 0 143 29.5t119 88t81 144.5t30 200zM1366 702q0 -149 -47 -277t-134 -222.5t-211.5 -148.5t-279.5 -54h-495q-31 0 -31 27v1245q0 48 -9 80.5t-22 52.5h557q155 0 279.5 -54t211.5 -148.5 t134 -223t47 -277.5z" />
<glyph unicode="E" horiz-adv-x="1167" d="M199 0q-31 0 -31 27v1245q0 48 -9 80.5t-22 52.5h854q23 0 31.5 -8.5t11.5 -28.5l33 -233q-20 12 -52.5 21t-80.5 9h-483v-313h550v-270q-20 12 -52.5 21t-80.5 9h-417v-372h505q48 0 81 9t53 21v-270h-891z" />
<glyph unicode="F" horiz-adv-x="1098" d="M1049 1135q-20 12 -53 21t-81 9h-464v-346h497v-268q-20 12 -52.5 21.5t-80.5 9.5h-364v-582h-252q-31 0 -31 27v1245q0 48 -9 80.5t-22 52.5h836q23 0 31.5 -8.5t11.5 -28.5z" />
<glyph unicode="G" horiz-adv-x="1450" d="M1319 70q-32 -19 -85 -37.5t-117.5 -33t-135.5 -23.5t-139 -9q-175 0 -311 51.5t-229.5 147.5t-142 233t-48.5 308q0 153 46.5 286.5t136.5 232.5t220.5 155.5t298.5 56.5q61 0 116 -6.5t98.5 -15t74 -17t43.5 -13.5q29 -11 41.5 -23.5t15.5 -43.5l23 -236 q-31 19 -71.5 38.5t-90 35.5t-107.5 26.5t-122 10.5q-92 0 -170 -29t-134.5 -89t-88 -153.5t-31.5 -222.5q0 -125 36 -217t97 -152.5t140.5 -90t166.5 -29.5q57 0 104.5 4.5t89.5 13.5v303h-204q-31 0 -31 27v213h479q31 0 31 -27v-675z" />
<glyph unicode="H" horiz-adv-x="1448" d="M1311 1405q-13 -20 -22 -52.5t-9 -80.5v-1272h-252q-31 0 -31 27v612h-546v-639h-252q-31 0 -31 27v1245q0 48 -9 80.5t-22 52.5h283q31 0 31 -27v-497h546v495q0 29 31 29h283z" />
<glyph unicode="I" horiz-adv-x="618" d="M481 1405q-12 -20 -21 -52.5t-9 -80.5v-1272h-252q-31 0 -31 27v1245q0 48 -9 80.5t-22 52.5h344z" />
<glyph unicode="J" horiz-adv-x="1092" d="M965 1405q-13 -20 -22 -52.5t-9 -80.5v-854q0 -118 -33.5 -203t-96.5 -140t-153 -81.5t-202 -26.5q-86 0 -156.5 19.5t-123.5 49t-89.5 63t-54.5 61.5l149 164q10 -12 31 -34t53 -43.5t74 -37.5t94 -16q65 0 108.5 17.5t69.5 50.5t36.5 82t10.5 112v817q0 48 -9 80.5 t-21 52.5h344z" />
<glyph unicode="K" horiz-adv-x="1391" d="M1049 0q-19 0 -36.5 7.5t-35.5 27.5l-526 586v-621h-252q-31 0 -31 27v1245q0 48 -9 80.5t-22 52.5h283q31 0 31 -27v-534l473 526q18 22 33 28.5t42 6.5h318q-23 -8 -52 -34.5t-57 -57.5l-514 -563l697 -750h-342z" />
<glyph unicode="L" horiz-adv-x="1155" d="M199 0q-31 0 -31 27v1245q0 48 -9 80.5t-22 52.5h344q-12 -20 -21 -52.5t-9 -80.5v-1032h510q48 0 80.5 9t52.5 21v-270h-895z" />
<glyph unicode="M" horiz-adv-x="1722" d="M1585 1405q-12 -20 -21.5 -52.5t-9.5 -80.5v-1272h-249q-31 0 -31 27v1032l-387 -942h-74l-373 921v-1038h-241q-31 0 -31 27v1245q0 48 -9 80.5t-22 52.5h336q23 0 31 -9t16 -28l338 -790l348 827h379z" />
<glyph unicode="N" horiz-adv-x="1448" d="M1311 1405q-13 -20 -22 -52.5t-9 -80.5v-1282h-176q-36 0 -51 24l-619 1016v-1030h-235q-31 0 -31 27v1245q0 48 -9 80.5t-22 52.5h299q28 0 41.5 -10t24.5 -27l512 -836v846q0 27 30 27h267z" />
<glyph unicode="O" horiz-adv-x="1577" d="M1165 702q0 127 -28 221t-78 156t-119.5 92.5t-151.5 30.5t-151 -30.5t-119 -92.5t-78 -156t-28 -221q0 -126 28 -220.5t78 -156.5t119 -93t151 -31t151.5 31t119.5 93t78 156.5t28 220.5zM1466 702q0 -162 -45 -297t-131 -232.5t-212.5 -151.5t-289.5 -54t-289 54 t-212.5 151.5t-131 232.5t-44.5 297t44.5 297.5t131 233t212.5 151.5t289 54t289.5 -54t212.5 -151.5t131 -233t45 -297.5z" />
<glyph unicode="P" horiz-adv-x="1257" d="M864 979q0 62 -17.5 101.5t-48 62t-72.5 31t-91 8.5h-189v-418q17 -2 33.5 -3t36 -1.5t44 -1t56.5 -0.5q62 0 108.5 16t77.5 45t46.5 69.5t15.5 90.5zM1155 995q0 -121 -40.5 -209t-115.5 -145q-33 -25 -72 -44t-87.5 -32t-108 -19.5t-133.5 -6.5q-37 0 -79.5 2t-74.5 4 v-545h-245q-31 0 -31 27v1245q0 48 -9 80.5t-22 52.5h520q125 0 208.5 -22t142.5 -64q72 -51 109.5 -132.5t37.5 -191.5z" />
<glyph unicode="Q" horiz-adv-x="1610" d="M1165 702q0 127 -28 221t-78 156t-119.5 92.5t-151.5 30.5t-151 -30.5t-119 -92.5t-78 -156t-28 -221q0 -126 28 -220t78 -156.5t119 -93.5t151 -31t151.5 31t119.5 93.5t78 156.5t28 220zM1141 -217q-29 0 -51 10.5t-43 32.5l-152 149q-26 -5 -52.5 -6.5t-54.5 -1.5 q-163 0 -289 54t-212.5 151.5t-131 232.5t-44.5 297t44.5 297.5t131 233t212.5 151.5t289 54t289.5 -54t212.5 -151.5t131 -233t45 -297.5q0 -206 -73 -367.5t-215 -258.5l321 -293h-358z" />
<glyph unicode="R" horiz-adv-x="1366" d="M872 989q0 55 -17 92t-47.5 59.5t-72 32t-90.5 9.5h-199v-404h185q121 0 181 55.5t60 155.5zM1040 0q-18 0 -38.5 7t-32.5 30l-299 522q-17 -2 -33 -2h-29h-164v-557h-245q-31 0 -31 27v1245q0 48 -9 80.5t-22 52.5h531q125 0 208 -22t142 -64q35 -26 62 -60t45.5 -74.5 t28 -85.5t9.5 -93q0 -109 -35 -193t-106 -143q-16 -13 -33.5 -23.5t-40.5 -21.5l389 -625h-297z" />
<glyph unicode="S" horiz-adv-x="1233" d="M1112 389q0 -97 -34.5 -174.5t-102.5 -132t-169 -84t-233 -29.5q-80 0 -150.5 9.5t-133 25.5t-116.5 38t-101 46l88 227q37 -20 79.5 -39.5t91 -34.5t102.5 -24.5t116 -9.5q61 0 110 8.5t82.5 28t51.5 51.5t18 78q0 43 -17 75t-50.5 57t-83.5 46t-115 43 q-82 28 -158 61.5t-134 82t-93 117.5t-35 169q0 76 29 150.5t90.5 133t158.5 94.5t232 36q56 0 105 -4.5t88.5 -11t68 -13.5t43.5 -12q14 -6 22.5 -10.5t13.5 -11t7 -15.5t4 -23l25 -219q-96 45 -187.5 65.5t-169.5 20.5q-51 0 -96 -8t-79 -28t-54 -53t-20 -83q0 -41 21 -71 t58.5 -54.5t90 -45t116.5 -42.5q83 -29 159 -62.5t134 -82.5t92.5 -118t34.5 -167z" />
<glyph unicode="T" horiz-adv-x="1184" d="M1153 1135q-20 12 -52.5 21t-80.5 9h-287v-1165h-252q-30 0 -30 27v1138h-375q-31 0 -31 27v213h1034q20 0 27 -8.5t10 -28.5z" />
<glyph unicode="U" horiz-adv-x="1427" d="M1300 1405q-12 -20 -21 -52.5t-9 -80.5v-811q0 -108 -30 -198.5t-96 -156t-172 -102.5t-259 -37q-152 0 -258 37t-172 102.5t-95.5 156t-29.5 198.5v811q0 48 -9.5 80.5t-21.5 52.5h283q30 0 30 -27v-884q0 -148 64 -218.5t209 -70.5t209.5 70.5t64.5 218.5v884 q0 27 31 27h282z" />
<glyph unicode="V" horiz-adv-x="1339" d="M1339 1405q-18 -12 -31.5 -39.5t-27.5 -65.5l-467 -1308h-260q-22 0 -31 20l-463 1291q-12 35 -26 62.5t-33 39.5h297q26 0 33.5 -8.5t13.5 -28.5l336 -1018l336 1018q6 20 14.5 28.5t34.5 8.5h274z" />
<glyph unicode="W" horiz-adv-x="1833" d="M1833 1405q-19 -12 -34.5 -39.5t-24.5 -65.5l-318 -1308h-272q-13 0 -20.5 3.5t-10.5 14.5l-235 969l-246 -987h-269q-12 0 -19.5 2.5t-10.5 13.5l-314 1288q-9 38 -24.5 67.5t-34.5 41.5h291q26 0 34 -7.5t13 -27.5l215 -973l229 985h240q26 0 34 -7.5t13 -26.5 l215 -953l223 973q5 20 13 28.5t34 8.5h279z" />
<glyph unicode="X" horiz-adv-x="1358" d="M1012 0q-14 0 -20.5 4.5t-12.5 13.5l-311 510l-349 -528h-241q-35 0 -35 23q0 12 8.5 26.5t24.5 36.5l448 655l-362 574q-20 32 -40 56.5t-48 33.5h305q16 0 26.5 -1.5t18 -5.5t12.5 -10.5t10 -15.5l246 -401l264 401q6 9 12 15.5t13.5 10.5t18 5.5t26.5 1.5h274 q-26 -9 -45 -33.5t-41 -56.5l-378 -555l487 -760h-311z" />
<glyph unicode="Y" horiz-adv-x="1288" d="M1288 1405q-26 -9 -45 -32.5t-41 -57.5l-428 -672v-643h-252q-30 0 -30 27v612l-404 676q-20 34 -40 57.5t-48 32.5h313q16 0 26.5 -1.5t18 -5t13 -10t10.5 -16.5l268 -479l289 479q12 20 24 26.5t44 6.5h282z" />
<glyph unicode="Z" horiz-adv-x="1266" d="M94 0q-31 0 -31 27v135l725 1003h-643q-30 0 -30 27v213h1032q31 0 31 -27v-135l-725 -1003h604q48 0 80.5 9t52.5 21v-270h-1096z" />
<glyph unicode="[" horiz-adv-x="770" d="M166 -287q-12 0 -19.5 6t-7.5 19v1667h557q29 0 29 -23v-211h-311v-1224h282q29 0 29 -23v-211h-559z" />
<glyph unicode="\" horiz-adv-x="639" d="M403 0q-15 0 -23 7.5t-13 23.5l-357 1374h226q15 0 23 -7.5t13 -23.5l357 -1374h-226z" />
<glyph unicode="]" horiz-adv-x="770" d="M74 -287q-29 0 -29 23v211h311v1224h-282q-29 0 -29 23v211h559q27 0 27 -25v-1667h-557z" />
<glyph unicode="^" horiz-adv-x="1147" d="M784 629l-221 465l-219 -465h-242q-14 0 -19 5t-5 13q0 6 2.5 12.5t5.5 14.5l365 731h211q22 0 30 -16l377 -760h-285z" />
<glyph unicode="_" horiz-adv-x="1024" d="M0 -387v102h1024v-102h-1024z" />
<glyph unicode="`" horiz-adv-x="1217" d="M684 1075q-23 0 -38 5.5t-34 25.5l-194 209q-22 23 -45.5 43.5t-46.5 36.5h309q23 0 33.5 -6t21.5 -23l176 -291h-182z" />
<glyph unicode="a" horiz-adv-x="1100" d="M694 430q-31 6 -72.5 11t-86.5 5q-88 0 -134.5 -36t-46.5 -99q0 -62 38.5 -94.5t109.5 -32.5q37 0 68 7.5t55.5 18.5t42 24t26.5 24v172zM729 0q-31 0 -31 27v84q-13 -23 -37 -46t-59.5 -41t-82.5 -29t-107 -11q-78 0 -137.5 23t-100 64.5t-61.5 98t-21 123.5 q0 84 30 144t84 98.5t130.5 56.5t169.5 18q34 0 81.5 -3t106.5 -11v41q0 42 -14 71t-40 47.5t-63.5 27t-84.5 8.5q-44 0 -83.5 -7t-73.5 -17.5t-61.5 -22.5t-46.5 -23l-53 121q-5 12 -6.5 20.5t-1.5 16.5q0 18 16 31t41 24q12 4 39 13.5t66 19.5t88.5 17t105.5 7 q118 0 201 -25.5t135.5 -72t76 -112t23.5 -144.5v-637h-229z" />
<glyph unicode="b" horiz-adv-x="1155" d="M784 485q0 74 -16 127t-43.5 87.5t-64.5 50.5t-80 16q-98 0 -170 -66v-489q34 -12 69 -19.5t80 -7.5q44 0 84.5 14.5t72 49.5t50 92.5t18.5 144.5zM1065 512q0 -139 -38.5 -240.5t-106.5 -167.5t-162.5 -97.5t-206.5 -31.5q-134 0 -243.5 23t-190.5 63q11 23 17.5 54 t6.5 65v1092q0 48 -9 80.5t-21 52.5l208 14q20 2 36 3t24 1q31 0 31 -26v-490q32 35 93.5 59.5t147.5 24.5q95 0 171.5 -34.5t130.5 -97.5t83 -151t29 -196z" />
<glyph unicode="c" horiz-adv-x="997" d="M934 41q-62 -25 -146 -45.5t-192 -20.5q-96 0 -173.5 22.5t-139.5 65.5q-91 62 -142 165t-51 243q0 119 34 215t99.5 164t160 104.5t216.5 36.5q69 0 122 -10.5t91 -24.5q28 -9 37.5 -21.5t11.5 -37.5l19 -213q-54 34 -118.5 56t-139.5 22q-51 0 -97 -17t-80.5 -52.5 t-54.5 -90t-20 -129.5t20.5 -125.5t56.5 -82t84.5 -45t104.5 -13.5q75 0 131.5 15.5t103.5 35.5z" />
<glyph unicode="d" horiz-adv-x="1176" d="M766 702q-31 29 -76.5 48.5t-105.5 19.5q-97 0 -156 -73t-59 -218q0 -84 17.5 -137.5t47 -85t68 -43.5t80.5 -12q32 0 60 8.5t51 22t41.5 31.5t31.5 36v403zM811 0q-28 0 -31 27l-10 88q-9 -20 -30.5 -42.5t-55 -42.5t-80.5 -33t-108 -13q-79 0 -152.5 29.5t-129.5 90 t-90 153.5t-34 220q0 121 35 216.5t95 161.5t140.5 101t171.5 35q67 0 127.5 -18t106.5 -62v361q0 48 -9 80.5t-22 52.5l209 14q20 2 36 3t24 1q30 0 30 -26v-1397h-223z" />
<glyph unicode="e" horiz-adv-x="1065" d="M713 584q0 229 -170 229q-85 0 -131.5 -59t-46.5 -170h348zM983 457q0 -31 -15 -42.5t-44 -11.5h-559q12 -106 80.5 -158t181.5 -52q75 0 140.5 14.5t121.5 36.5l72 -195q-26 -12 -60.5 -25.5t-79 -24t-99 -17.5t-118.5 -7q-121 0 -216.5 36.5t-161.5 102.5t-101 158.5 t-35 204.5q0 114 30.5 208.5t89.5 162.5t144.5 105.5t196.5 37.5q120 0 202.5 -41t133.5 -108q52 -71 74 -165.5t22 -197.5v-22z" />
<glyph unicode="f" horiz-adv-x="750" d="M827 1151q-42 19 -89.5 35t-112.5 16q-76 0 -118 -37t-42 -121v-77h199q15 0 21.5 -7.5t8.5 -21.5l27 -182h-256v-756h-238q-30 0 -30 27v729h-115q-16 0 -22.5 4t-6.5 18v84l144 92v97q0 83 27 151.5t76 117.5t117 76t150 27q75 0 120.5 -10t76.5 -22q25 -10 32.5 -20 t10.5 -32z" />
<glyph unicode="g" horiz-adv-x="1153" d="M745 754q-35 12 -71 19t-78 7q-45 0 -85.5 -15.5t-71.5 -49.5t-49.5 -88t-18.5 -131q0 -72 16 -122t43 -82t63.5 -46.5t77.5 -14.5q53 0 99 17t75 43v463zM1038 905q-11 -23 -17.5 -53t-6.5 -66v-729q0 -114 -31.5 -195.5t-91.5 -135.5q-63 -57 -153 -85t-206 -28 q-62 0 -112.5 4t-95 11.5t-85 18.5t-81.5 25l53 191q57 -22 132 -37.5t157 -15.5q78 0 128 18t79 47q20 20 29 52.5t9 72.5v96q-13 -15 -36 -31t-55 -28.5t-71 -20.5t-83 -8q-86 0 -160.5 33t-130 93.5t-87.5 146t-32 190.5q0 130 38.5 228t106.5 162.5t162.5 97t206.5 32.5 q134 0 245.5 -24t188.5 -62z" />
<glyph unicode="h" horiz-adv-x="1182" d="M799 0q-31 0 -31 27v551q0 95 -33.5 138.5t-118.5 43.5q-29 0 -59 -10t-57.5 -27t-51 -39.5t-38.5 -46.5v-637h-238q-31 0 -31 27v1245q0 48 -9 80.5t-21 52.5l208 14q20 2 36 3t24 1q31 0 31 -26v-525q46 53 118 86t160 33q177 0 264.5 -95t87.5 -267v-629h-241z" />
<glyph unicode="i" horiz-adv-x="543" d="M166 0q-31 0 -31 27v807q0 48 -9 80.5t-22 52.5h269q30 0 30 -27v-940h-237zM428 1239q0 -28 -11.5 -53t-32.5 -44t-51.5 -30.5t-68.5 -11.5t-68 11.5t-51.5 30.5t-33 44t-11.5 53q0 29 11.5 55t33 45t51.5 30t68 11t68.5 -11t51.5 -30t32.5 -45t11.5 -55z" />
<glyph unicode="j" horiz-adv-x="547" d="M408 -25q0 -90 -26.5 -158t-74.5 -113.5t-114.5 -68t-145.5 -22.5q-78 0 -135.5 13t-95.5 32l57 186q31 -14 66.5 -20t66.5 -6q27 0 51 6.5t42.5 23t29 46t10.5 75.5v865q0 48 -9 80.5t-21 52.5h268q31 0 31 -27v-965zM432 1239q0 -29 -11.5 -54.5t-32.5 -44.5 t-51.5 -30.5t-68.5 -11.5t-68 11.5t-51.5 30.5t-33 44.5t-11.5 54.5q0 28 11.5 54t33 45t51.5 30.5t68 11.5t68.5 -11.5t51.5 -30.5t32.5 -45t11.5 -54z" />
<glyph unicode="k" horiz-adv-x="1120" d="M799 0q-13 0 -30 7.5t-30 23.5l-329 426v-457h-238q-31 0 -31 27v1245q0 48 -9 80.5t-21 52.5l208 14q20 2 36 3t24 1q31 0 31 -26v-817l290 366q8 9 19 15t31 6h311q-17 -7 -37 -24.5t-37 -37.5l-311 -370l444 -535h-321z" />
<glyph unicode="l" horiz-adv-x="551" d="M172 0q-31 0 -31 27v1245q0 48 -9 80.5t-21 52.5l208 14q20 2 36 3t24 1q31 0 31 -26v-1397h-238z" />
<glyph unicode="m" horiz-adv-x="1743" d="M1360 0q-31 0 -31 27v567q0 85 -28.5 125.5t-106.5 40.5q-28 0 -55.5 -10.5t-52 -27.5t-45.5 -39t-35 -46v-637h-242q-31 0 -31 27v567q0 85 -28.5 125.5t-106.5 40.5q-29 0 -56.5 -11t-52.5 -28.5t-45.5 -39.5t-33.5 -44v-637h-238q-31 0 -31 27v675q0 47 -5 94.5 t-13 94.5q-6 40 -23 76h230q15 0 23.5 -5t13.5 -16q6 -15 9.5 -42.5t6.5 -65.5q20 32 50 60t68.5 48.5t84.5 32.5t98 12q94 0 169 -38.5t114 -121.5q58 79 135.5 119.5t165.5 40.5q84 0 147 -24t104.5 -68.5t62 -108.5t20.5 -145v-645h-242z" />
<glyph unicode="n" horiz-adv-x="1178" d="M795 0q-31 0 -31 27v551q0 95 -33.5 138.5t-118.5 43.5q-29 0 -58.5 -10t-56 -27t-49.5 -39.5t-38 -46.5v-637h-238q-31 0 -31 27v675q0 47 -5 94.5t-13 94.5q-6 40 -23 76h230q15 0 23.5 -5t13.5 -16q5 -12 9 -36t7 -72q21 32 51.5 60t69 48.5t84 32.5t96.5 12 q177 0 264.5 -95t87.5 -267v-629h-241z" />
<glyph unicode="o" horiz-adv-x="1155" d="M786 483q0 140 -55.5 213.5t-152.5 73.5t-153 -73.5t-56 -213.5q0 -139 56 -213.5t153 -74.5t152.5 74.5t55.5 213.5zM1065 483q0 -120 -36.5 -214.5t-102 -160t-154.5 -99.5t-194 -34t-194.5 34t-155 99.5t-102 160t-36.5 214.5q0 121 36.5 215.5t102 159.5t155 99 t194.5 34t194 -34t154.5 -99t102 -159.5t36.5 -215.5z" />
<glyph unicode="p" horiz-adv-x="1176" d="M807 487q0 84 -17.5 138.5t-47 87t-68 45t-80.5 12.5q-57 0 -103 -23t-81 -55v-422q37 -35 83 -55t103 -20q47 0 86 19t66.5 56t43 91.5t15.5 125.5zM1085 494q0 -123 -35 -219.5t-95 -163t-141 -101.5t-173 -35q-57 0 -118 17.5t-113 62.5v-432h-238q-31 0 -31 27v1052 q0 47 -4.5 94.5t-13.5 94.5q-6 40 -23 76h230q15 0 23.5 -5t13.5 -16q5 -12 10 -37t8 -51q59 72 130 102.5t161 30.5q86 0 160.5 -30.5t130 -92t87 -155t31.5 -219.5z" />
<glyph unicode="q" horiz-adv-x="1153" d="M745 754q-35 12 -71 19t-78 7q-44 0 -84.5 -14.5t-72 -48.5t-50 -91.5t-18.5 -142.5q0 -76 15 -130t42 -88.5t63.5 -51t79.5 -16.5q45 0 92 15.5t82 49.5v492zM1038 899q-11 -23 -17.5 -54t-6.5 -65v-1157h-238q-31 0 -31 27v403q-38 -34 -95.5 -56t-137.5 -22 q-98 0 -176.5 37t-133 101.5t-83.5 151.5t-29 186q0 139 40 241t110 168.5t166 98.5t208 32q135 0 244 -27t180 -65z" />
<glyph unicode="r" horiz-adv-x="762" d="M733 705q-29 9 -59.5 14.5t-65.5 5.5q-40 0 -71.5 -9.5t-55.5 -24.5t-41.5 -33.5t-29.5 -36.5v-621h-238q-31 0 -31 27v675q0 47 -4.5 94.5t-13.5 94.5q-5 20 -10 39.5t-13 36.5h230q15 0 23.5 -5t13.5 -16q8 -15 15 -44t13 -79q44 78 111 117t139 39q37 0 51.5 -9.5 t16.5 -29.5z" />
<glyph unicode="s" horiz-adv-x="930" d="M840 274q0 -143 -101.5 -221t-302.5 -78q-103 0 -197.5 22.5t-172.5 59.5l71 199q25 -12 55 -24.5t65 -23t76 -17.5t87 -7q83 0 117 20.5t34 57.5q0 22 -6 38.5t-24.5 30t-53 27t-90.5 31.5q-75 24 -129.5 53t-89.5 66t-52 83.5t-17 106.5q0 56 22.5 109t69 94t117 65.5 t167.5 24.5q78 0 137 -9.5t87 -18.5q26 -8 36 -20.5t13 -37.5l18 -194q-35 18 -72.5 32t-73.5 23t-69 13.5t-59 4.5q-69 0 -103 -20t-34 -64q0 -24 18.5 -41t51 -31.5t77.5 -29t98 -33.5q52 -18 94.5 -42.5t72.5 -58.5t46.5 -80.5t16.5 -109.5z" />
<glyph unicode="t" horiz-adv-x="772" d="M748 35q-51 -22 -114 -36.5t-145 -14.5q-63 0 -118.5 12.5t-97.5 44.5t-66.5 86t-24.5 137v492h-114q-16 0 -22.5 4t-6.5 18v94q28 20 65.5 48t76 69.5t72 99.5t52.5 138h119q31 0 31 -27v-233h196q16 0 22.5 -7.5t8.5 -21.5l27 -182h-254v-422q0 -33 5 -57.5t18.5 -41 t36.5 -24.5t60 -8q25 0 55.5 5.5t59.5 14.5z" />
<glyph unicode="u" horiz-adv-x="1178" d="M811 0q-28 0 -31 27l-8 88q-15 -24 -41 -47.5t-62 -42t-82.5 -30t-103.5 -11.5q-152 0 -241 77q-101 89 -101 281v492q0 48 -9 80.5t-21 52.5h272q31 0 31 -27v-551q0 -50 9 -84t27.5 -55t47.5 -30t69 -9q66 0 117.5 28.5t83.5 73.5v521q0 48 -9 80.5t-22 52.5h269 q30 0 30 -27v-940h-225z" />
<glyph unicode="v" horiz-adv-x="1053" d="M1053 967q-19 -13 -32.5 -40.5t-27.5 -64.5l-336 -862h-243q-13 0 -19.5 4.5t-11.5 15.5l-324 842q-14 35 -27 63.5t-32 41.5h270q13 0 20.5 -2t12 -6.5t7.5 -11.5t7 -17l213 -617l215 617q8 20 16 28.5t34 8.5h258z" />
<glyph unicode="w" horiz-adv-x="1522" d="M1522 967q-19 -13 -33 -40t-27 -65l-274 -862h-244q-24 0 -31 20l-153 558l-162 -578h-244q-24 0 -30 20l-265 842q-12 37 -26 64.5t-33 40.5h272q26 0 34 -9t13 -28l152 -619l178 633h205q26 0 33.5 -8.5t13.5 -28.5l160 -596l158 619q6 21 14.5 29t34.5 8h254z" />
<glyph unicode="x" horiz-adv-x="993" d="M694 0q-16 0 -22 12l-187 293l-206 -305h-244q-25 0 -25 16q0 8 6.5 18.5t16.5 22.5l317 447l-264 401q-14 22 -27.5 38.5t-31.5 23.5h284q22 0 29.5 -5t15.5 -18l148 -233l160 233q9 13 16 18t29 5h266q-19 -7 -31.5 -23.5t-28.5 -38.5l-274 -389l342 -516h-289z" />
<glyph unicode="y" horiz-adv-x="1075" d="M1075 967q-18 -13 -31 -40.5t-28 -64.5l-369 -930q-63 -158 -156.5 -238.5t-234.5 -80.5q-45 0 -80.5 4t-63 10.5t-49.5 15t-40 17.5l65 203q32 -14 62.5 -22.5t68.5 -8.5q53 0 97 33.5t73 105.5l37 90l-365 803q-15 34 -29.5 62t-31.5 41h283q25 0 32 -9t15 -28 l231 -582l209 582q7 19 15 28t34 9h256z" />
<glyph unicode="z" horiz-adv-x="1004" d="M86 0q-15 0 -22 4.5t-7 18.5v96l482 637h-416q-31 0 -31 26v185h799q15 0 22 -4.5t7 -18.5v-96l-484 -637h357q48 0 80.5 9t52.5 22v-242h-840z" />
<glyph unicode="{" horiz-adv-x="813" d="M621 -287q-123 0 -198 33.5t-116.5 88.5t-55 123.5t-13.5 139.5v226q0 60 -34 88t-95 28h-35q-29 0 -29 23v217h64q61 0 95 28.5t34 88.5v223q0 47 5.5 94t21 89.5t42 79.5t69 64t103 42.5t142.5 15.5h118q29 0 29 -23v-211h-109q-35 0 -61.5 -4.5t-44 -20.5t-26.5 -48 t-9 -86v-156q0 -51 -6 -95.5t-21.5 -82t-41.5 -67.5t-66 -52q40 -21 66 -50.5t41.5 -67t21.5 -82t6 -95.5v-158q0 -54 9 -86t26.5 -48t44 -20.5t61.5 -4.5h80q29 0 29 -23v-211h-147z" />
<glyph unicode="|" horiz-adv-x="655" d="M190 0v1405h275v-1405h-275z" />
<glyph unicode="}" horiz-adv-x="813" d="M705 438q-62 0 -96 -28t-34 -88v-224q0 -47 -5.5 -94t-21 -89.5t-42 -79.5t-69 -64t-102.5 -42.5t-142 -15.5h-119q-29 0 -29 23v211h109q35 0 61.5 4.5t44 20.5t26.5 48t9 86v156q0 51 6 95.5t21.5 82t41.5 67.5t66 52q-40 21 -66 50.5t-41.5 67t-21.5 82t-6 95.5v158 q0 54 -9 86t-26.5 48t-44 20.5t-61.5 4.5h-80q-29 0 -29 23v211h148q82 0 142 -15.5t102.5 -42.5t69 -64t42 -79.5t21 -89.5t5.5 -94v-225q0 -60 34 -88.5t96 -28.5h34q29 0 29 -23v-217h-63z" />
<glyph unicode="~" horiz-adv-x="1313" d="M1255 575q-77 -151 -172 -232t-200 -81q-51 0 -96 13t-85 32.5t-76 42.5t-69.5 42.5t-65 32.5t-63.5 13q-24 0 -44 -7t-41 -25.5t-44 -50.5t-51 -81l-191 119q78 152 173 233t200 81q51 0 95.5 -13t85 -33t76.5 -42.5t69.5 -42.5t65.5 -33t63 -13q24 0 44 7t41 25.5 t43.5 50.5t51.5 81z" />
<glyph unicode="&#xa1;" horiz-adv-x="573" d="M176 0q-31 0 -31 27l17 979h219q31 0 31 -27l12 -846q0 -48 9 -80.5t22 -52.5h-279zM463 1268q0 -33 -12.5 -63t-35.5 -53t-55.5 -36.5t-72.5 -13.5t-72.5 13.5t-55.5 36.5t-35.5 53t-12.5 63t12.5 62.5t35.5 51.5t55.5 35t72.5 13t72.5 -13t55.5 -35t35.5 -51.5 t12.5 -62.5z" />
<glyph unicode="&#xa2;" horiz-adv-x="997" d="M903 248q-48 -19 -109 -36t-137 -24v-188h-190v190q-63 8 -116.5 28.5t-98.5 51.5q-91 63 -142 165.5t-51 242.5q0 106 27 194t79.5 154.5t128 108.5t173.5 57v160h190v-158q78 -12 125 -31q28 -9 37.5 -21.5t11.5 -37.5l19 -213q-54 34 -118.5 56t-139.5 22 q-51 0 -96.5 -17t-80 -52.5t-55 -90t-20.5 -129.5t20.5 -125.5t56.5 -82t84.5 -45t104.5 -13.5q76 0 132 15.5t104 35.5z" />
<glyph unicode="&#xa3;" horiz-adv-x="1122" d="M1098 1120q-10 7 -33 19t-55.5 24t-72.5 20.5t-85 8.5q-68 0 -112.5 -19.5t-74.5 -57t-49 -92t-34 -124.5l-17 -76h309q17 0 26 -5.5t11 -26.5l17 -183h-408l-76 -368h508q23 0 48.5 5t43.5 19v-264h-950q-18 0 -29.5 10.5t-11.5 32.5v197h131l78 368h-76q-24 0 -33.5 9 t-9.5 34v172h164l21 103q18 94 50.5 180.5t89 153t141.5 106t210 39.5q84 0 134 -9.5t73 -19.5q28 -9 36.5 -17t10.5 -24z" />
<glyph unicode="&#xa4;" horiz-adv-x="1307" d="M909 688q0 55 -20.5 103.5t-55.5 84.5t-82 57t-100 21t-100 -21t-82 -57t-55.5 -84.5t-20.5 -103.5q0 -54 20.5 -102.5t55.5 -85t82 -57.5t100 -21t100 21t82 57.5t55.5 85t20.5 102.5zM1071 125l-143 145q-59 -40 -129 -62t-148 -22q-75 0 -144.5 22t-129.5 62 l-146 -145l-143 143l145 146q-40 59 -61.5 128t-21.5 146q0 75 21.5 146t61.5 131l-145 143l143 143l146 -143q60 38 128.5 60t145.5 22q76 0 145.5 -22t131.5 -60l143 143l143 -143l-143 -143q38 -60 60 -129.5t22 -147.5q0 -75 -22 -144.5t-60 -129.5l143 -146z" />
<glyph unicode="&#xa5;" horiz-adv-x="1288" d="M1288 1380q-26 -9 -46 -32.5t-42 -57.5l-350 -532h215q15 0 22 -4.5t7 -18.5v-145h-320v-164h291q15 0 22 -4.5t7 -18.5v-145h-320v-258h-252q-30 0 -30 27v231h-267q-15 0 -22.5 5.5t-7.5 19.5v143h297v164h-267q-15 0 -22.5 5t-7.5 19v144h229l-334 532 q-22 34 -42 57.5t-48 32.5h309q32 0 44.5 -6t23.5 -26l272 -476l293 476q12 19 24 25.5t44 6.5h278z" />
<glyph unicode="&#xa6;" horiz-adv-x="655" d="M190 0v469h275v-469h-275zM190 936v469h275v-469h-275z" />
<glyph unicode="&#xa7;" horiz-adv-x="1053" d="M688 664q0 20 -10.5 41t-33 40t-57.5 35t-85 25q-35 -5 -61.5 -18t-44.5 -31t-27 -40t-9 -44q0 -35 12 -58.5t30 -39t39.5 -24.5t41.5 -13q26 -7 53 -12.5t58 -8.5q19 11 36 24.5t30 31.5t20.5 40.5t7.5 51.5zM932 682q0 -87 -39 -146t-100 -96q24 -11 48 -32t43.5 -51.5 t31.5 -70.5t12 -89q0 -76 -30.5 -136.5t-87.5 -102.5t-137 -64.5t-179 -22.5q-77 0 -142 11t-118.5 27t-94 34t-67.5 32l78 189q29 -18 69 -34.5t84 -29t89.5 -20.5t86.5 -8q40 0 77 7.5t65.5 22t45.5 36.5t17 52q0 27 -7.5 50t-27.5 42.5t-55 34.5t-90 27q-77 17 -147 35.5 t-123.5 50.5t-85 83.5t-31.5 133.5q0 34 7.5 66.5t24 62.5t42.5 55.5t63 45.5q-24 9 -48 29t-42.5 49.5t-30.5 67.5t-12 83q0 70 29 128t81.5 99t126.5 63.5t164 22.5q106 0 169 -14.5t89 -24.5q25 -9 35 -23t12 -34l13 -190q-25 17 -64.5 32.5t-85 27.5t-92 19t-84.5 7 q-71 0 -110 -28.5t-39 -76.5q0 -38 22 -60.5t56 -35.5t76 -20.5t83 -16.5q64 -14 124 -34.5t105.5 -54.5t73 -84.5t27.5 -125.5z" />
<glyph unicode="&#xa8;" horiz-adv-x="1217" d="M520 1202q0 -24 -8.5 -47.5t-26 -41.5t-44 -29t-62.5 -11t-62.5 11t-44 29t-26 41.5t-8.5 47.5q0 26 8.5 50t26 42.5t44 29.5t62.5 11t62.5 -11t44 -29.5t26 -42.5t8.5 -50zM973 1202q0 -24 -8 -47.5t-25.5 -41.5t-43.5 -29t-62 -11t-63 11t-44.5 29t-26 41.5t-8.5 47.5 q0 26 8.5 50t26 42.5t44.5 29.5t63 11t62 -11t43.5 -29.5t25.5 -42.5t8 -50z" />
<glyph unicode="&#xa9;" horiz-adv-x="1800" d="M1202 338q-56 -23 -125.5 -38t-146.5 -15q-105 0 -187.5 29t-139.5 83t-86.5 132t-29.5 176q0 83 28 158t82.5 131.5t136 90t188.5 33.5q71 0 118.5 -10.5t61.5 -15.5q20 -7 28.5 -16.5t10.5 -24.5l20 -156q-68 31 -124 45t-111 14q-49 0 -92 -14t-75 -45t-50.5 -80.5 t-18.5 -120.5q0 -69 22 -115.5t57 -74t79 -39.5t88 -12q63 0 122 13t99 26zM1483 702q0 121 -45 228t-124 187t-185.5 126.5t-229.5 46.5q-84 0 -159.5 -21t-140.5 -59.5t-117.5 -92.5t-89.5 -119.5t-57 -140.5t-20 -155t21 -155t59 -141t91.5 -120t118.5 -93t139.5 -60.5 t154.5 -21.5q83 0 158.5 21.5t140.5 60.5t117.5 93t90 120t57.5 141t20 155zM1690 700q0 -108 -28 -208t-79.5 -187t-123.5 -159t-159.5 -123t-188.5 -79t-210 -28t-210 28t-188.5 79t-160 123t-124 159t-79.5 187t-28 208t28 208.5t79.5 187.5t124 159t160 123t188.5 79 t210 28t210 -28t188.5 -79t159.5 -123t123.5 -159t79.5 -187.5t28 -208.5z" />
<glyph unicode="&#xaa;" horiz-adv-x="1014" d="M616 961q-26 5 -62.5 8.5t-74.5 3.5q-74 0 -112.5 -28t-38.5 -79q0 -49 32.5 -74.5t92.5 -25.5q31 0 58 6t47.5 14.5t35 18.5t22.5 18v138zM645 618q-12 0 -19.5 6t-7.5 17v66q-11 -19 -31 -37t-50.5 -32.5t-70.5 -23t-91 -8.5q-66 0 -116.5 18.5t-85 51.5t-52 78 t-17.5 98q0 64 25 111.5t71 79t111 46.5t144 15q29 0 70.5 -3t90.5 -9v32q0 66 -46 93.5t-128 27.5q-37 0 -70.5 -5.5t-62 -14t-51.5 -18t-39 -17.5l-45 96q-8 16 -8 29q0 15 13.5 26t35.5 19q10 4 33 11.5t56.5 15t75 13t89.5 5.5q100 0 171 -20.5t115 -57t64.5 -88.5 t20.5 -115v-506h-195z" />
<glyph unicode="&#xab;" horiz-adv-x="1122" d="M322 184l-273 336l273 336h290l-272 -336l272 -336h-290zM782 184l-272 336l272 336h291l-272 -336l272 -336h-291z" />
<glyph unicode="&#xac;" d="M834 393q-29 0 -29 27v373h-750q-15 0 -22.5 5t-7.5 19v217h1009q16 0 22.5 -4t6.5 -18v-619h-229z" />
<glyph unicode="&#xad;" horiz-adv-x="760" d="M684 424v223q0 14 -6.5 18.5t-22.5 4.5h-579v-221q0 -14 7.5 -19.5t22.5 -5.5h578z" />
<glyph unicode="&#xae;" horiz-adv-x="1800" d="M1016 856q0 32 -11.5 53.5t-30.5 34t-42 18t-47 5.5h-115v-232h104q29 0 55 7t45.5 21.5t30.5 37.5t11 55zM1090 276q-20 0 -33 8t-21 23l-145 285h-121v-316h-158q-34 0 -34 27v692q0 37 -7.5 65t-19.5 50h358q66 0 123.5 -12.5t99.5 -42t66.5 -79t24.5 -124.5 q0 -38 -11 -74.5t-30.5 -67t-46.5 -52.5t-60 -31l195 -351h-180zM1483 702q0 121 -45 228t-124 187t-185.5 126.5t-229.5 46.5q-84 0 -159.5 -21t-140.5 -59.5t-117.5 -92.5t-89.5 -119.5t-57 -140.5t-20 -155t21 -155t59 -141t91.5 -120t118.5 -93t139.5 -60.5t154.5 -21.5 q83 0 158.5 21.5t140.5 60.5t117.5 93t90 120t57.5 141t20 155zM1690 700q0 -108 -28 -208t-79.5 -187t-123.5 -159t-159.5 -123t-188.5 -79t-210 -28t-210 28t-188.5 79t-160 123t-124 159t-79.5 187t-28 208t28 208.5t79.5 187.5t124 159t160 123t188.5 79t210 28t210 -28 t188.5 -79t159.5 -123t123.5 -159t79.5 -187.5t28 -208.5z" />
<glyph unicode="&#xaf;" horiz-adv-x="1106" d="M877 1104v219h-646v-219h646z" />
<glyph unicode="&#xb0;" horiz-adv-x="1024" d="M672 1044q0 34 -12.5 64.5t-34 53t-50.5 35.5t-61 13t-61 -13t-50.5 -35.5t-34 -53t-12.5 -64.5t12.5 -64t34 -53t50.5 -36.5t61 -13.5t61 13.5t50.5 36.5t34 53t12.5 64zM872 1044q0 -75 -28 -140.5t-76.5 -114.5t-114.5 -77t-141 -28t-141 28t-114.5 77t-76.5 114.5 t-28 140.5t28 141t76.5 115t114.5 77t141 28t141 -28t114.5 -77t76.5 -115t28 -141z" />
<glyph unicode="&#xb1;" d="M59 0q-15 0 -22.5 5.5t-7.5 19.5v217h1009q16 0 22.5 -4.5t6.5 -18.5v-219h-1008zM678 698v-399h-229q-29 0 -29 27v372h-361q-30 0 -30 25v217h391v393h227q31 0 31 -26v-367h360q16 0 22.5 -4t6.5 -18v-220h-389z" />
<glyph unicode="&#xb2;" horiz-adv-x="967" d="M154 567q-16 0 -22.5 4.5t-6.5 18.5v127l260 215q50 41 80.5 70.5t47.5 52.5t22.5 42t5.5 40q0 35 -25 59.5t-76 24.5q-28 0 -52 -7.5t-46 -22t-44 -36.5t-46 -51l-98 96q-10 9 -17.5 21t-7.5 24q0 14 9.5 26.5t31.5 31.5q12 11 36 28.5t60 34t85 28t112 11.5 q70 0 129 -17t101 -49.5t65.5 -79t23.5 -104.5q0 -53 -17.5 -99.5t-48 -88.5t-72.5 -80.5t-91 -75.5l-76 -57h185q48 0 80 8.5t57 23.5v-219h-645z" />
<glyph unicode="&#xb3;" horiz-adv-x="967" d="M805 840q0 -79 -32 -134t-83 -89.5t-115.5 -50t-128.5 -15.5q-63 0 -112.5 6t-88.5 15t-70 19.5t-56 20.5l65 179q50 -23 109 -37.5t115 -14.5q83 0 122 21.5t39 66.5q0 38 -17.5 56t-59.5 26q-39 8 -76.5 8.5t-85.5 0.5h-8q-25 0 -25 26v121l211 143h-328q-30 0 -30 27 v154h591q16 0 22.5 -4.5t6.5 -18.5v-133l-217 -158q119 -15 185.5 -73.5t66.5 -161.5z" />
<glyph unicode="&#xb4;" horiz-adv-x="1217" d="M891 1395q-23 -16 -47 -37.5t-45 -42.5l-199 -209q-19 -20 -34 -25.5t-38 -5.5h-178l187 291q11 17 21.5 23t33.5 6h299z" />
<glyph unicode="&#xb6;" horiz-adv-x="1225" d="M1087 1405q-11 -17 -21.5 -46t-10.5 -63v-1673h-203q-12 0 -19.5 6t-7.5 19v1595h-172v-1620h-202q-27 0 -27 25v745q-72 13 -137.5 57t-115.5 110.5t-80 150.5t-30 178q0 114 36 208.5t102 163t158.5 106.5t205.5 38h524z" />
<glyph unicode="&#xb7;" horiz-adv-x="571" d="M461 711q0 -33 -12.5 -62.5t-35.5 -51.5t-55.5 -35t-72.5 -13t-72.5 13t-55.5 35t-35.5 51.5t-12.5 62.5t12.5 63t35.5 53t55.5 36.5t72.5 13.5t72.5 -13.5t55.5 -36.5t35.5 -53t12.5 -63z" />
<glyph unicode="&#xb8;" horiz-adv-x="1106" d="M844 -96q-7 -6 -18.5 -17t-23.5 -23t-22.5 -23t-15.5 -17l-150 -180q-17 -22 -32.5 -26.5t-38.5 -4.5h-193l160 262q11 17 21.5 23t33.5 6h279z" />
<glyph unicode="&#xb9;" horiz-adv-x="967" d="M428 567q-31 0 -31 27v508l-90 -68q-6 -5 -11 -7.5t-13 -2.5q-11 0 -21 10l-102 123l291 232h141q31 0 31 -27v-795h-195z" />
<glyph unicode="&#xba;" horiz-adv-x="1155" d="M756 1001q0 110 -47.5 169t-130.5 59q-84 0 -131.5 -59t-47.5 -169q0 -109 47.5 -169t131.5 -60q83 0 130.5 60t47.5 169zM991 1001q0 -96 -31 -171t-86.5 -126.5t-131 -78.5t-164.5 -27t-165 27t-131.5 78.5t-86.5 126.5t-31 171t31 171t86.5 127t131.5 79t165 27 t164.5 -27t131 -79t86.5 -127t31 -171z" />
<glyph unicode="&#xbb;" horiz-adv-x="1122" d="M340 184h-291l273 336l-273 336h291l272 -336zM801 184h-291l272 336l-272 336h291l272 -336z" />
<glyph unicode="&#xbc;" horiz-adv-x="2085" d="M1585 571l-213 -266h213v266zM379 567q-31 0 -31 27v508l-90 -68q-6 -5 -11.5 -7.5t-13.5 -2.5q-10 0 -20 10l-102 123l290 232h142q30 0 30 -27v-795h-194zM739 -25h-227q-11 0 -16 8t2 23l725 1399h215q26 0 30.5 -10.5t-6.5 -30.5zM1794 145v-153h-180q-16 0 -22.5 4 t-6.5 18v131h-391q-29 0 -29 27v147l410 494h188q16 0 22.5 -4t6.5 -18v-486h63q16 0 22.5 -7.5t8.5 -21.5l19 -131h-111z" />
<glyph unicode="&#xbd;" horiz-adv-x="2085" d="M360 567q-30 0 -30 27v508l-90 -68q-7 -5 -12 -7.5t-13 -2.5q-10 0 -20 10l-103 123l291 232h141q31 0 31 -27v-795h-195zM713 -25h-228q-11 0 -15.5 8t1.5 23l725 1399h215q26 0 31 -10.5t-6 -30.5zM1225 -8q-16 0 -22.5 4t-6.5 18v127l260 215q50 42 80.5 71.5t47.5 52 t22.5 41.5t5.5 40q0 35 -25 59.5t-76 24.5q-56 0 -97.5 -29.5t-90.5 -87.5l-98 97q-10 9 -17.5 20.5t-7.5 24.5q0 14 9.5 26t31.5 31q12 12 36 29t60 33.5t85 28t112 11.5q70 0 129 -17t101 -49.5t65.5 -78.5t23.5 -104q0 -53 -17.5 -100t-48 -89t-72.5 -80t-91 -75l-76 -58 h185q48 0 80 8.5t57 24.5v-219h-645z" />
<glyph unicode="&#xbe;" horiz-adv-x="2085" d="M1628 571l-213 -266h213v266zM813 817q0 -77 -31.5 -128t-82 -82t-113 -43.5t-123.5 -12.5q-66 0 -116.5 5t-89.5 13t-69 17.5t-55 19.5l57 174q15 -6 41 -13.5t57.5 -14t65 -11t62.5 -4.5q83 0 123.5 17.5t40.5 60.5q0 53 -55 72.5t-173 19.5h-22q-13 0 -19 7.5t-6 19.5 v115l201 153h-305q-31 0 -31 27v160h580q15 0 21.5 -4.5t6.5 -18.5v-139l-211 -174q116 -17 181 -73.5t65 -162.5zM811 -25h-227q-11 0 -16 8t1 23l725 1399h215q26 0 31 -10.5t-6 -30.5zM1837 145v-153h-180q-16 0 -22.5 4t-6.5 18v131h-391q-29 0 -29 27v147l410 494h188 q16 0 22.5 -4t6.5 -18v-486h63q16 0 22.5 -7.5t8.5 -21.5l19 -131h-111z" />
<glyph unicode="&#xbf;" horiz-adv-x="1141" d="M1032 201q0 -14 -9 -27t-22 -27q-31 -32 -71.5 -62.5t-91.5 -55t-114.5 -39.5t-139.5 -15q-85 0 -160 23t-131.5 67.5t-89.5 111t-33 153.5q0 64 16 115.5t42.5 93.5t59.5 77.5t68 67.5q42 40 68.5 70.5t40.5 56.5t19 51.5t5 55.5v77h220q30 0 30 -26v-113 q0 -48 -10.5 -85.5t-28.5 -70t-43 -60.5t-53 -56q-27 -28 -53.5 -55t-47 -55.5t-33.5 -59.5t-13 -68q0 -66 40.5 -99.5t112.5 -33.5q37 0 70 9.5t65 29t65 50.5t69 73l129 -129q9 -10 16.5 -21.5t7.5 -23.5zM791 1257q0 -33 -12.5 -63t-36 -52.5t-56 -36t-72.5 -13.5 t-72.5 13.5t-55.5 36t-35.5 52.5t-12.5 63t12.5 62.5t35.5 51.5t55.5 35t72.5 13t72.5 -13t56 -35t36 -51.5t12.5 -62.5z" />
<glyph unicode="&#xc0;" horiz-adv-x="1296" d="M641 1137l-195 -586h375zM1028 0q-26 0 -33.5 8.5t-13.5 28.5l-92 293h-518l-113 -330h-225q-33 0 -33 20q0 7 1 14.5t7 22.5l416 1135q12 32 21.5 70t9.5 67q0 28 -5.5 46t-13.5 30h334q25 0 31 -21l495 -1384h-268zM602 1536q-23 0 -38 5.5t-34 25.5l-194 209 q-22 23 -45.5 43.5t-46.5 35.5h309q23 0 33.5 -5.5t21.5 -22.5l176 -291h-182z" />
<glyph unicode="&#xc1;" horiz-adv-x="1296" d="M641 1137l-195 -586h375zM1028 0q-26 0 -33.5 8.5t-13.5 28.5l-92 293h-518l-113 -330h-225q-33 0 -33 20q0 7 1 14.5t7 22.5l416 1135q12 32 21.5 70t9.5 67q0 28 -5.5 46t-13.5 30h334q25 0 31 -21l495 -1384h-268zM1047 1855q-23 -15 -47 -36.5t-46 -42.5l-198 -209 q-19 -20 -34 -25.5t-38 -5.5h-178l186 291q11 17 22 22.5t34 5.5h299z" />
<glyph unicode="&#xc2;" horiz-adv-x="1296" d="M641 1137l-195 -586h375zM1028 0q-26 0 -33.5 8.5t-13.5 28.5l-92 293h-518l-113 -330h-225q-33 0 -33 20q0 7 1 14.5t7 22.5l416 1135q12 32 21.5 70t9.5 67q0 28 -5.5 46t-13.5 30h334q25 0 31 -21l495 -1384h-268zM868 1536q-17 0 -34 6.5t-35 28.5l-152 172 l-180 -207h-172q-11 0 -16 5t-5 13q0 7 3 11.5t6 9.5l239 323h228q12 0 19 -2t12 -6t9.5 -10l10.5 -14l229 -330h-162z" />
<glyph unicode="&#xc3;" horiz-adv-x="1296" d="M641 1137l-195 -586h375zM1028 0q-26 0 -33.5 8.5t-13.5 28.5l-92 293h-518l-113 -330h-225q-33 0 -33 20q0 7 1 14.5t7 22.5l416 1135q12 32 21.5 70t9.5 67q0 28 -5.5 46t-13.5 30h334q25 0 31 -21l495 -1384h-268zM1018 1788q-48 -115 -110.5 -169t-125.5 -54 q-52 0 -89 16t-66 33q-16 8 -31 17.5t-29.5 18t-28.5 14t-28 5.5t-26.5 -1t-26 -9.5t-28 -27.5t-32.5 -54l-125 63q22 52 50.5 93.5t60 70t64.5 43.5t65 15q27 0 49 -5.5t41.5 -14.5t39 -20.5t40.5 -23.5q34 -20 57.5 -31.5t44.5 -11.5q15 0 28 2t25.5 11.5t26 28.5t29.5 54 z" />
<glyph unicode="&#xc4;" horiz-adv-x="1296" d="M641 1137l-195 -586h375zM1028 0q-26 0 -33.5 8.5t-13.5 28.5l-92 293h-518l-113 -330h-225q-33 0 -33 20q0 7 1 14.5t7 22.5l416 1135q12 32 21.5 70t9.5 67q0 28 -5.5 46t-13.5 30h334q25 0 31 -21l495 -1384h-268zM561 1663q0 -25 -8.5 -48t-26 -41t-44 -29t-62.5 -11 t-62.5 11t-44 29t-26 41t-8.5 48q0 26 8.5 50t26 42.5t44 29.5t62.5 11t62.5 -11t44 -29.5t26 -42.5t8.5 -50zM1014 1663q0 -25 -8 -48t-25.5 -41t-44 -29t-62.5 -11t-62.5 11t-44 29t-26 41t-8.5 48q0 26 8.5 50t26 42.5t44 29.5t62.5 11t62.5 -11t44 -29.5t25.5 -42.5 t8 -50z" />
<glyph unicode="&#xc5;" horiz-adv-x="1296" d="M641 1137l-195 -586h375zM754 1509q0 23 -8.5 44t-23 36.5t-35 25t-44.5 9.5t-44.5 -9.5t-35.5 -25t-24 -36.5t-9 -44t9 -43.5t24 -36.5t35.5 -25t44.5 -9t44.5 9t35 25t23 36.5t8.5 43.5zM1028 0q-26 0 -33.5 8.5t-13.5 28.5l-92 293h-518l-113 -330h-225q-33 0 -33 20 q0 7 1 14.5t7 22.5l416 1135q9 23 22 56t27 65q-43 35 -67.5 86.5t-24.5 109.5q0 54 20.5 100.5t55.5 81t83 54.5t103 20t103 -20t82.5 -54.5t54.5 -81t20 -100.5q0 -55 -21.5 -104t-58.5 -84l473 -1321h-268z" />
<glyph unicode="&#xc6;" horiz-adv-x="1921" d="M922 1135l-328 -584h328v584zM952 0q-30 0 -30 27v305h-449l-188 -332h-252q-33 0 -33 25q0 8 2 14.5t8 17.5l695 1139q18 28 28.5 49t16.5 36.5t8 26.5t2 21q0 25 -6 42.5t-17 33.5h1008q23 0 31.5 -8.5t11.5 -28.5l33 -233q-20 12 -52.5 21t-80.5 9h-484v-313h551v-270 q-20 12 -52.5 21t-80.5 9h-418v-372h506q48 0 80.5 9t52.5 21v-270h-891z" />
<glyph unicode="&#xc7;" horiz-adv-x="1282" d="M922 -96q-7 -6 -18.5 -17t-23.5 -23t-22.5 -23t-15.5 -17l-150 -180q-17 -22 -32.5 -26.5t-38.5 -4.5h-193l160 262q11 17 21.5 23t33.5 6h279zM1247 61q-27 -12 -73 -27.5t-104 -29.5t-125 -23.5t-134 -9.5q-169 0 -299.5 51t-219.5 146t-135 231t-46 306 q0 154 45.5 287t131 231.5t208 154.5t276.5 56q61 0 113 -5.5t92 -13.5t67 -16.5t39 -14.5q14 -6 24 -11t16.5 -12t10 -17t5.5 -25l22 -232q-29 19 -67 36.5t-82 31.5t-93.5 22.5t-101.5 8.5q-85 0 -159.5 -26.5t-129.5 -85t-86.5 -150.5t-31.5 -224q0 -126 34 -217.5 t90.5 -151t130.5 -88t154 -28.5q112 0 200 23t148 49z" />
<glyph unicode="&#xc8;" horiz-adv-x="1167" d="M199 0q-31 0 -31 27v1245q0 48 -9 80.5t-22 52.5h854q23 0 31.5 -8.5t11.5 -28.5l33 -233q-20 12 -52.5 21t-80.5 9h-483v-313h550v-270q-20 12 -52.5 21t-80.5 9h-417v-372h505q48 0 81 9t53 21v-270h-891zM602 1536q-23 0 -38 5.5t-34 25.5l-194 209q-22 23 -45.5 43.5 t-46.5 35.5h309q23 0 33.5 -5.5t21.5 -22.5l176 -291h-182z" />
<glyph unicode="&#xc9;" horiz-adv-x="1167" d="M199 0q-31 0 -31 27v1245q0 48 -9 80.5t-22 52.5h854q23 0 31.5 -8.5t11.5 -28.5l33 -233q-20 12 -52.5 21t-80.5 9h-483v-313h550v-270q-20 12 -52.5 21t-80.5 9h-417v-372h505q48 0 81 9t53 21v-270h-891zM973 1855q-23 -15 -47 -36.5t-45 -42.5l-199 -209 q-19 -20 -34 -25.5t-38 -5.5h-178l186 291q11 17 22 22.5t34 5.5h299z" />
<glyph unicode="&#xca;" horiz-adv-x="1167" d="M199 0q-31 0 -31 27v1245q0 48 -9 80.5t-22 52.5h854q23 0 31.5 -8.5t11.5 -28.5l33 -233q-20 12 -52.5 21t-80.5 9h-483v-313h550v-270q-20 12 -52.5 21t-80.5 9h-417v-372h505q48 0 81 9t53 21v-270h-891zM827 1536q-17 0 -34 6.5t-35 28.5l-152 172l-180 -207h-172 q-11 0 -16 5t-5 13q0 7 3 11.5t6 9.5l239 323h228q12 0 19 -2t12 -6t9.5 -10l10.5 -14l229 -330h-162z" />
<glyph unicode="&#xcb;" horiz-adv-x="1167" d="M199 0q-31 0 -31 27v1245q0 48 -9 80.5t-22 52.5h854q23 0 31.5 -8.5t11.5 -28.5l33 -233q-20 12 -52.5 21t-80.5 9h-483v-313h550v-270q-20 12 -52.5 21t-80.5 9h-417v-372h505q48 0 81 9t53 21v-270h-891zM520 1663q0 -25 -8.5 -48t-26 -41t-44 -29t-62.5 -11t-62.5 11 t-44 29t-26 41t-8.5 48q0 26 8.5 50t26 42.5t44 29.5t62.5 11t62.5 -11t44 -29.5t26 -42.5t8.5 -50zM973 1663q0 -25 -8 -48t-25.5 -41t-43.5 -29t-62 -11t-63 11t-44.5 29t-26 41t-8.5 48q0 26 8.5 50t26 42.5t44.5 29.5t63 11t62 -11t43.5 -29.5t25.5 -42.5t8 -50z" />
<glyph unicode="&#xcc;" horiz-adv-x="618" d="M481 1405q-12 -20 -21 -52.5t-9 -80.5v-1272h-252q-31 0 -31 27v1245q0 48 -9 80.5t-22 52.5h344zM274 1536q-23 0 -38 5.5t-33 25.5l-195 209q-21 23 -45 43.5t-47 35.5h309q23 0 34 -5.5t22 -22.5l176 -291h-183z" />
<glyph unicode="&#xcd;" horiz-adv-x="618" d="M481 1405q-12 -20 -21 -52.5t-9 -80.5v-1272h-252q-31 0 -31 27v1245q0 48 -9 80.5t-22 52.5h344zM686 1855q-23 -15 -46.5 -36.5t-45.5 -42.5l-199 -209q-18 -20 -33 -25.5t-38 -5.5h-179l187 291q11 17 21.5 22.5t33.5 5.5h299z" />
<glyph unicode="&#xce;" horiz-adv-x="618" d="M481 1405q-12 -20 -21 -52.5t-9 -80.5v-1272h-252q-31 0 -31 27v1245q0 48 -9 80.5t-22 52.5h344zM541 1536q-17 0 -34 6.5t-36 28.5l-152 172l-180 -207h-172q-11 0 -15.5 5t-4.5 13q0 7 2.5 11.5t5.5 9.5l240 323h227q12 0 19.5 -2t12.5 -6t9 -10t10 -14l229 -330h-161 z" />
<glyph unicode="&#xcf;" horiz-adv-x="618" d="M481 1405q-12 -20 -21 -52.5t-9 -80.5v-1272h-252q-31 0 -31 27v1245q0 48 -9 80.5t-22 52.5h344zM209 1663q0 -25 -8.5 -48t-26 -41t-44 -29t-62.5 -11t-63 11t-44.5 29t-26 41t-8.5 48q0 26 8.5 50t26 42.5t44.5 29.5t63 11t62.5 -11t44 -29.5t26 -42.5t8.5 -50z M662 1663q0 -25 -8.5 -48t-25.5 -41t-43.5 -29t-62.5 -11t-62.5 11t-44 29t-26 41t-8.5 48q0 26 8.5 50t26 42.5t44 29.5t62.5 11t62.5 -11t43.5 -29.5t25.5 -42.5t8.5 -50z" />
<glyph unicode="&#xd0;" horiz-adv-x="1477" d="M1065 702q0 114 -30 200.5t-81 145t-119 88t-143 29.5h-241v-354h229v-197h-229v-374h241q75 0 143 29.5t119 88t81 144.5t30 200zM1366 702q0 -149 -47 -277t-134 -222.5t-211.5 -148.5t-279.5 -54h-495q-31 0 -31 27v587h-152v197h152v461q0 48 -9 80.5t-22 52.5h557 q155 0 279.5 -54t211.5 -148.5t134 -223t47 -277.5z" />
<glyph unicode="&#xd1;" horiz-adv-x="1448" d="M1311 1405q-13 -20 -22 -52.5t-9 -80.5v-1282h-176q-36 0 -51 24l-619 1016v-1030h-235q-31 0 -31 27v1245q0 48 -9 80.5t-22 52.5h299q28 0 41.5 -10t24.5 -27l512 -836v846q0 27 30 27h267zM1120 1788q-48 -115 -110 -169t-125 -54q-53 0 -90 16t-66 33q-16 8 -31 17.5 t-29.5 18t-28.5 14t-28 5.5t-26.5 -1t-25.5 -9.5t-27.5 -27.5t-32.5 -54l-125 63q21 52 49.5 93.5t60 70t64.5 43.5t65 15q27 0 49 -5.5t41.5 -14.5t39 -20.5t40.5 -23.5q34 -20 57.5 -31.5t45.5 -11.5q15 0 28 2t25.5 11.5t25.5 28.5t29 54z" />
<glyph unicode="&#xd2;" horiz-adv-x="1577" d="M1165 702q0 127 -28 221t-78 156t-119.5 92.5t-151.5 30.5t-151 -30.5t-119 -92.5t-78 -156t-28 -221q0 -126 28 -220.5t78 -156.5t119 -93t151 -31t151.5 31t119.5 93t78 156.5t28 220.5zM1466 702q0 -162 -45 -297t-131 -232.5t-212.5 -151.5t-289.5 -54t-289 54 t-212.5 151.5t-131 232.5t-44.5 297t44.5 297.5t131 233t212.5 151.5t289 54t289.5 -54t212.5 -151.5t131 -233t45 -297.5zM786 1536q-23 0 -38 5.5t-33 25.5l-195 209q-21 23 -45 43.5t-47 35.5h309q23 0 34 -5.5t22 -22.5l176 -291h-183z" />
<glyph unicode="&#xd3;" horiz-adv-x="1577" d="M1165 702q0 127 -28 221t-78 156t-119.5 92.5t-151.5 30.5t-151 -30.5t-119 -92.5t-78 -156t-28 -221q0 -126 28 -220.5t78 -156.5t119 -93t151 -31t151.5 31t119.5 93t78 156.5t28 220.5zM1466 702q0 -162 -45 -297t-131 -232.5t-212.5 -151.5t-289.5 -54t-289 54 t-212.5 151.5t-131 232.5t-44.5 297t44.5 297.5t131 233t212.5 151.5t289 54t289.5 -54t212.5 -151.5t131 -233t45 -297.5zM1157 1855q-23 -15 -46.5 -36.5t-45.5 -42.5l-199 -209q-18 -20 -33 -25.5t-38 -5.5h-179l187 291q11 17 21.5 22.5t33.5 5.5h299z" />
<glyph unicode="&#xd4;" horiz-adv-x="1577" d="M1165 702q0 127 -28 221t-78 156t-119.5 92.5t-151.5 30.5t-151 -30.5t-119 -92.5t-78 -156t-28 -221q0 -126 28 -220.5t78 -156.5t119 -93t151 -31t151.5 31t119.5 93t78 156.5t28 220.5zM1466 702q0 -162 -45 -297t-131 -232.5t-212.5 -151.5t-289.5 -54t-289 54 t-212.5 151.5t-131 232.5t-44.5 297t44.5 297.5t131 233t212.5 151.5t289 54t289.5 -54t212.5 -151.5t131 -233t45 -297.5zM1012 1536q-17 0 -34 6.5t-36 28.5l-151 172l-181 -207h-172q-11 0 -15.5 5t-4.5 13q0 7 2.5 11.5t5.5 9.5l240 323h227q12 0 19.5 -2t12.5 -6t9 -10 t10 -14l230 -330h-162z" />
<glyph unicode="&#xd5;" horiz-adv-x="1577" d="M1165 702q0 127 -28 221t-78 156t-119.5 92.5t-151.5 30.5t-151 -30.5t-119 -92.5t-78 -156t-28 -221q0 -126 28 -220.5t78 -156.5t119 -93t151 -31t151.5 31t119.5 93t78 156.5t28 220.5zM1466 702q0 -162 -45 -297t-131 -232.5t-212.5 -151.5t-289.5 -54t-289 54 t-212.5 151.5t-131 232.5t-44.5 297t44.5 297.5t131 233t212.5 151.5t289 54t289.5 -54t212.5 -151.5t131 -233t45 -297.5zM1161 1788q-48 -115 -110 -169t-125 -54q-53 0 -90 16t-66 33q-16 8 -31 17.5t-29.5 18t-28.5 14t-28 5.5t-26.5 -1t-25.5 -9.5t-27.5 -27.5 t-32.5 -54l-125 63q21 52 49.5 93.5t60 70t64.5 43.5t65 15q27 0 49 -5.5t41.5 -14.5t39 -20.5t40.5 -23.5q34 -20 57.5 -31.5t45.5 -11.5q15 0 28 2t25.5 11.5t25.5 28.5t29 54z" />
<glyph unicode="&#xd6;" horiz-adv-x="1577" d="M1165 702q0 127 -28 221t-78 156t-119.5 92.5t-151.5 30.5t-151 -30.5t-119 -92.5t-78 -156t-28 -221q0 -126 28 -220.5t78 -156.5t119 -93t151 -31t151.5 31t119.5 93t78 156.5t28 220.5zM1466 702q0 -162 -45 -297t-131 -232.5t-212.5 -151.5t-289.5 -54t-289 54 t-212.5 151.5t-131 232.5t-44.5 297t44.5 297.5t131 233t212.5 151.5t289 54t289.5 -54t212.5 -151.5t131 -233t45 -297.5zM725 1663q0 -25 -8.5 -48t-26 -41t-44 -29t-62.5 -11t-63 11t-44.5 29t-26 41t-8.5 48q0 26 8.5 50t26 42.5t44.5 29.5t63 11t62.5 -11t44 -29.5 t26 -42.5t8.5 -50zM1178 1663q0 -25 -8 -48t-25.5 -41t-44 -29t-62.5 -11t-62.5 11t-44 29t-26 41t-8.5 48q0 26 8.5 50t26 42.5t44 29.5t62.5 11t62.5 -11t44 -29.5t25.5 -42.5t8 -50z" />
<glyph unicode="&#xd7;" d="M848 256q-12 -12 -23 -12q-10 0 -18 8l-260 264l-262 -264q-8 -8 -19 -8q-10 0 -22 12l-146 143l283 287l-283 285l146 143q12 12 22 12q11 0 19 -8l262 -264l260 264q8 8 18 8q11 0 23 -12l145 -143l-282 -285l282 -287z" />
<glyph unicode="&#xd8;" horiz-adv-x="1577" d="M1165 702q0 91 -14.5 164.5t-40.5 130.5l-514 -743q83 -53 192 -53q82 0 151.5 31t119.5 93t78 156.5t28 220.5zM977 1151q-40 26 -87.5 38.5t-101.5 12.5q-82 0 -151 -30.5t-119 -92.5t-78 -156t-28 -221q0 -89 14.5 -161.5t40.5 -130.5zM1466 702q0 -162 -45 -297 t-131 -232.5t-212.5 -151.5t-289.5 -54q-97 0 -181 20t-156 58l-129 -186l-158 112l131 191q-90 97 -137 234.5t-47 305.5q0 162 44.5 297.5t131 233t212.5 151.5t289 54q98 0 181.5 -19.5t154.5 -56.5l127 184l164 -106l-135 -195q91 -97 138.5 -234.5t47.5 -308.5z" />
<glyph unicode="&#xd9;" horiz-adv-x="1427" d="M1300 1405q-12 -20 -21 -52.5t-9 -80.5v-811q0 -108 -30 -198.5t-96 -156t-172 -102.5t-259 -37q-152 0 -258 37t-172 102.5t-95.5 156t-29.5 198.5v811q0 48 -9.5 80.5t-21.5 52.5h283q30 0 30 -27v-884q0 -148 64 -218.5t209 -70.5t209.5 70.5t64.5 218.5v884 q0 27 31 27h282zM684 1536q-23 0 -38 5.5t-34 25.5l-194 209q-22 23 -45.5 43.5t-46.5 35.5h309q23 0 33.5 -5.5t21.5 -22.5l176 -291h-182z" />
<glyph unicode="&#xda;" horiz-adv-x="1427" d="M1300 1405q-12 -20 -21 -52.5t-9 -80.5v-811q0 -108 -30 -198.5t-96 -156t-172 -102.5t-259 -37q-152 0 -258 37t-172 102.5t-95.5 156t-29.5 198.5v811q0 48 -9.5 80.5t-21.5 52.5h283q30 0 30 -27v-884q0 -148 64 -218.5t209 -70.5t209.5 70.5t64.5 218.5v884 q0 27 31 27h282zM1075 1855q-23 -15 -46.5 -36.5t-45.5 -42.5l-199 -209q-18 -20 -33 -25.5t-38 -5.5h-178l186 291q11 17 21.5 22.5t33.5 5.5h299z" />
<glyph unicode="&#xdb;" horiz-adv-x="1427" d="M1300 1405q-12 -20 -21 -52.5t-9 -80.5v-811q0 -108 -30 -198.5t-96 -156t-172 -102.5t-259 -37q-152 0 -258 37t-172 102.5t-95.5 156t-29.5 198.5v811q0 48 -9.5 80.5t-21.5 52.5h283q30 0 30 -27v-884q0 -148 64 -218.5t209 -70.5t209.5 70.5t64.5 218.5v884 q0 27 31 27h282zM928 1536q-17 0 -34 6.5t-36 28.5l-151 172l-181 -207h-172q-11 0 -15.5 5t-4.5 13q0 7 2.5 11.5t5.5 9.5l240 323h227q12 0 19.5 -2t12.5 -6t9 -10t10 -14l230 -330h-162z" />
<glyph unicode="&#xdc;" horiz-adv-x="1427" d="M1300 1405q-12 -20 -21 -52.5t-9 -80.5v-811q0 -108 -30 -198.5t-96 -156t-172 -102.5t-259 -37q-152 0 -258 37t-172 102.5t-95.5 156t-29.5 198.5v811q0 48 -9.5 80.5t-21.5 52.5h283q30 0 30 -27v-884q0 -148 64 -218.5t209 -70.5t209.5 70.5t64.5 218.5v884 q0 27 31 27h282zM653 1663q0 -25 -8.5 -48t-26 -41t-44 -29t-62.5 -11t-62.5 11t-44 29t-26 41t-8.5 48q0 26 8.5 50t26 42.5t44 29.5t62.5 11t62.5 -11t44 -29.5t26 -42.5t8.5 -50zM1106 1663q0 -25 -8 -48t-25.5 -41t-43.5 -29t-62 -11t-63 11t-44.5 29t-26 41t-8.5 48 q0 26 8.5 50t26 42.5t44.5 29.5t63 11t62 -11t43.5 -29.5t25.5 -42.5t8 -50z" />
<glyph unicode="&#xdd;" horiz-adv-x="1288" d="M1288 1405q-26 -9 -45 -32.5t-41 -57.5l-428 -672v-643h-252q-30 0 -30 27v612l-404 676q-20 34 -40 57.5t-48 32.5h313q16 0 26.5 -1.5t18 -5t13 -10t10.5 -16.5l268 -479l289 479q12 20 24 26.5t44 6.5h282zM1044 1855q-23 -15 -46.5 -36.5t-45.5 -42.5l-198 -209 q-19 -20 -34 -25.5t-38 -5.5h-178l186 291q11 17 21.5 22.5t33.5 5.5h299z" />
<glyph unicode="&#xde;" horiz-adv-x="1257" d="M864 762q0 62 -17.5 101.5t-48 62t-72.5 31t-91 8.5h-189v-418q17 -2 33.5 -3t36 -1.5t44 -1t56.5 -0.5q62 0 108.5 16t77.5 45t46.5 69.5t15.5 90.5zM1155 778q0 -122 -40.5 -209.5t-115.5 -144.5q-33 -25 -72 -44t-87.5 -32t-108 -19.5t-133.5 -6.5q-37 0 -79.5 2 t-74.5 4v-328h-245q-31 0 -31 27v1245q0 48 -9 80.5t-22 52.5h279q30 0 30 -27v-190h211q125 0 208.5 -22t142.5 -64q72 -51 109.5 -132.5t37.5 -191.5z" />
<glyph unicode="&#xdf;" horiz-adv-x="1241" d="M1151 410q0 -99 -32.5 -179.5t-91.5 -137.5t-142 -88.5t-185 -31.5q-21 0 -42.5 1.5t-40.5 4t-33.5 5.5t-20.5 6l29 215q9 -2 28 -3t31 -1q53 0 93.5 18t67.5 48.5t40.5 70.5t13.5 84q0 48 -12 88.5t-42 70.5t-80 47t-126 17q-35 0 -35 31v164q93 6 146 61t53 148 q0 69 -40 110t-109 41q-73 0 -114.5 -41.5t-41.5 -128.5v-1030h-238q-14 0 -22 5.5t-8 21.5v729h-115q-16 0 -22.5 4t-6.5 18v84l144 92v95q0 84 33.5 153t92 117.5t137 75t169.5 26.5q89 0 164.5 -21.5t131 -64t86.5 -106t31 -146.5q0 -103 -47 -182t-131 -121 q66 -14 119 -43.5t90.5 -75t57.5 -108t20 -143.5z" />
<glyph unicode="&#xe0;" horiz-adv-x="1100" d="M694 430q-31 6 -72.5 11t-86.5 5q-88 0 -134.5 -36t-46.5 -99q0 -62 38.5 -94.5t109.5 -32.5q37 0 68 7.5t55.5 18.5t42 24t26.5 24v172zM729 0q-31 0 -31 27v84q-13 -23 -37 -46t-59.5 -41t-82.5 -29t-107 -11q-78 0 -137.5 23t-100 64.5t-61.5 98t-21 123.5 q0 84 30 144t84 98.5t130.5 56.5t169.5 18q34 0 81.5 -3t106.5 -11v41q0 42 -14 71t-40 47.5t-63.5 27t-84.5 8.5q-44 0 -83.5 -7t-73.5 -17.5t-61.5 -22.5t-46.5 -23l-53 121q-5 12 -6.5 20.5t-1.5 16.5q0 18 16 31t41 24q12 4 39 13.5t66 19.5t88.5 17t105.5 7 q118 0 201 -25.5t135.5 -72t76 -112t23.5 -144.5v-637h-229zM541 1075q-23 0 -38 5.5t-34 25.5l-195 209q-21 23 -45 43.5t-47 36.5h310q23 0 33.5 -6t21.5 -23l176 -291h-182z" />
<glyph unicode="&#xe1;" horiz-adv-x="1100" d="M694 430q-31 6 -72.5 11t-86.5 5q-88 0 -134.5 -36t-46.5 -99q0 -62 38.5 -94.5t109.5 -32.5q37 0 68 7.5t55.5 18.5t42 24t26.5 24v172zM729 0q-31 0 -31 27v84q-13 -23 -37 -46t-59.5 -41t-82.5 -29t-107 -11q-78 0 -137.5 23t-100 64.5t-61.5 98t-21 123.5 q0 84 30 144t84 98.5t130.5 56.5t169.5 18q34 0 81.5 -3t106.5 -11v41q0 42 -14 71t-40 47.5t-63.5 27t-84.5 8.5q-44 0 -83.5 -7t-73.5 -17.5t-61.5 -22.5t-46.5 -23l-53 121q-5 12 -6.5 20.5t-1.5 16.5q0 18 16 31t41 24q12 4 39 13.5t66 19.5t88.5 17t105.5 7 q118 0 201 -25.5t135.5 -72t76 -112t23.5 -144.5v-637h-229zM952 1395q-23 -16 -46.5 -37.5t-45.5 -42.5l-198 -209q-19 -20 -34 -25.5t-38 -5.5h-178l186 291q11 17 21.5 23t33.5 6h299z" />
<glyph unicode="&#xe2;" horiz-adv-x="1100" d="M694 430q-31 6 -72.5 11t-86.5 5q-88 0 -134.5 -36t-46.5 -99q0 -62 38.5 -94.5t109.5 -32.5q37 0 68 7.5t55.5 18.5t42 24t26.5 24v172zM729 0q-31 0 -31 27v84q-13 -23 -37 -46t-59.5 -41t-82.5 -29t-107 -11q-78 0 -137.5 23t-100 64.5t-61.5 98t-21 123.5 q0 84 30 144t84 98.5t130.5 56.5t169.5 18q34 0 81.5 -3t106.5 -11v41q0 42 -14 71t-40 47.5t-63.5 27t-84.5 8.5q-44 0 -83.5 -7t-73.5 -17.5t-61.5 -22.5t-46.5 -23l-53 121q-5 12 -6.5 20.5t-1.5 16.5q0 18 16 31t41 24q12 4 39 13.5t66 19.5t88.5 17t105.5 7 q118 0 201 -25.5t135.5 -72t76 -112t23.5 -144.5v-637h-229zM768 1075q-17 0 -34 6.5t-36 28.5l-151 172l-180 -207h-172q-21 0 -21 19q0 6 2.5 10.5t5.5 9.5l240 324h227q12 0 19.5 -2t12.5 -6t9 -10.5t10 -14.5l230 -330h-162z" />
<glyph unicode="&#xe3;" horiz-adv-x="1100" d="M694 430q-31 6 -72.5 11t-86.5 5q-88 0 -134.5 -36t-46.5 -99q0 -62 38.5 -94.5t109.5 -32.5q37 0 68 7.5t55.5 18.5t42 24t26.5 24v172zM729 0q-31 0 -31 27v84q-13 -23 -37 -46t-59.5 -41t-82.5 -29t-107 -11q-78 0 -137.5 23t-100 64.5t-61.5 98t-21 123.5 q0 84 30 144t84 98.5t130.5 56.5t169.5 18q34 0 81.5 -3t106.5 -11v41q0 42 -14 71t-40 47.5t-63.5 27t-84.5 8.5q-44 0 -83.5 -7t-73.5 -17.5t-61.5 -22.5t-46.5 -23l-53 121q-5 12 -6.5 20.5t-1.5 16.5q0 18 16 31t41 24q12 4 39 13.5t66 19.5t88.5 17t105.5 7 q118 0 201 -25.5t135.5 -72t76 -112t23.5 -144.5v-637h-229zM956 1327q-48 -114 -110 -168.5t-125 -54.5q-53 0 -90 16t-66 33q-16 9 -31 18.5t-29.5 17.5t-28.5 13.5t-27 5.5q-14 0 -26.5 -1t-26 -9.5t-28 -27.5t-32.5 -54l-125 64q21 52 49.5 93t60.5 69.5t65 43.5t65 15 q27 0 48.5 -5.5t41.5 -14.5t39 -20.5t41 -23.5q34 -20 57 -31.5t45 -11.5q15 0 28 2t25.5 11.5t25.5 29t29 54.5z" />
<glyph unicode="&#xe4;" horiz-adv-x="1100" d="M694 430q-31 6 -72.5 11t-86.5 5q-88 0 -134.5 -36t-46.5 -99q0 -62 38.5 -94.5t109.5 -32.5q37 0 68 7.5t55.5 18.5t42 24t26.5 24v172zM729 0q-31 0 -31 27v84q-13 -23 -37 -46t-59.5 -41t-82.5 -29t-107 -11q-78 0 -137.5 23t-100 64.5t-61.5 98t-21 123.5 q0 84 30 144t84 98.5t130.5 56.5t169.5 18q34 0 81.5 -3t106.5 -11v41q0 42 -14 71t-40 47.5t-63.5 27t-84.5 8.5q-44 0 -83.5 -7t-73.5 -17.5t-61.5 -22.5t-46.5 -23l-53 121q-5 12 -6.5 20.5t-1.5 16.5q0 18 16 31t41 24q12 4 39 13.5t66 19.5t88.5 17t105.5 7 q118 0 201 -25.5t135.5 -72t76 -112t23.5 -144.5v-637h-229zM479 1202q0 -24 -8.5 -47.5t-26 -41.5t-44 -29t-62.5 -11t-62.5 11t-44 29t-26 41.5t-8.5 47.5q0 26 8.5 50t26 42.5t44 29.5t62.5 11t62.5 -11t44 -29.5t26 -42.5t8.5 -50zM932 1202q0 -24 -8 -47.5t-25.5 -41.5 t-43.5 -29t-62 -11t-63 11t-44.5 29t-26 41.5t-8.5 47.5q0 26 8.5 50t26 42.5t44.5 29.5t63 11t62 -11t43.5 -29.5t25.5 -42.5t8 -50z" />
<glyph unicode="&#xe5;" horiz-adv-x="1100" d="M694 430q-31 6 -72.5 11t-86.5 5q-88 0 -134.5 -36t-46.5 -99q0 -62 38.5 -94.5t109.5 -32.5q37 0 68 7.5t55.5 18.5t42 24t26.5 24v172zM686 1335q0 23 -8.5 44t-23 36.5t-35 25t-44.5 9.5t-44.5 -9.5t-35.5 -25t-23.5 -36.5t-8.5 -44t8.5 -43.5t23.5 -36.5t35.5 -25 t44.5 -9t44.5 9t35 25t23 36.5t8.5 43.5zM729 0q-31 0 -31 27v84q-13 -23 -37 -46t-59.5 -41t-82.5 -29t-107 -11q-78 0 -137.5 23t-100 64.5t-61.5 98t-21 123.5q0 84 30 144t84 98.5t130.5 56.5t169.5 18q34 0 81.5 -3t106.5 -11v41q0 42 -14 71t-40 47.5t-63.5 27 t-84.5 8.5q-44 0 -83.5 -7t-73.5 -17.5t-61.5 -22.5t-46.5 -23l-53 121q-5 12 -6.5 20.5t-1.5 16.5q0 18 16 31t41 24q12 4 39 13.5t66 19.5t88.5 17t105.5 7q118 0 201 -25.5t135.5 -72t76 -112t23.5 -144.5v-637h-229zM836 1335q0 -54 -20 -101t-55 -82t-83 -55t-103 -20 t-103 20t-83 55t-55.5 82t-20.5 101t20.5 100.5t55.5 81t83 54.5t103 20t103 -20t83 -54.5t55 -81t20 -100.5z" />
<glyph unicode="&#xe6;" horiz-adv-x="1659" d="M727 260q-19 40 -28.5 83t-12.5 89q-28 5 -68 9.5t-83 4.5q-88 0 -134.5 -37t-46.5 -100q0 -125 164 -125q37 0 71 8t61.5 19.5t47.5 24.5t29 24zM1307 584q0 229 -170 229q-85 0 -132 -59t-47 -170h349zM1577 457q0 -31 -15 -42.5t-44 -11.5h-560q13 -106 81.5 -158 t181.5 -52q75 0 140.5 14.5t121.5 36.5l71 -195q-25 -12 -59.5 -25.5t-79 -24t-99 -17.5t-118.5 -7q-127 0 -224 39.5t-163 110.5q-15 -18 -41.5 -42.5t-69 -46.5t-104 -37t-145.5 -15q-101 0 -169.5 27t-110.5 70.5t-60.5 99t-18.5 112.5q0 84 30 144t84 98.5t130.5 56.5 t169.5 18q34 0 81.5 -3t106.5 -11v41q0 42 -14 71t-40 47.5t-63.5 27t-84.5 8.5q-44 0 -83.5 -7t-73.5 -17.5t-61.5 -22.5t-46.5 -23l-53 121q-5 12 -6.5 20.5t-1.5 16.5q0 18 16 31t41 24q12 4 39 13.5t66 19.5t88.5 17t105.5 7q116 0 197.5 -27.5t134.5 -89.5 q54 57 129 87t174 30q112 0 192.5 -40.5t131.5 -108.5q52 -71 74 -165.5t22 -197.5v-22z" />
<glyph unicode="&#xe7;" horiz-adv-x="997" d="M762 -96q-7 -6 -18.5 -17t-23.5 -23t-22.5 -23t-15.5 -17l-150 -180q-17 -22 -32.5 -26.5t-38.5 -4.5h-193l160 262q11 17 21.5 23t33.5 6h279zM934 41q-62 -25 -146 -45.5t-192 -20.5q-96 0 -173.5 22.5t-139.5 65.5q-91 62 -142 165t-51 243q0 119 34 215t99.5 164 t160 104.5t216.5 36.5q69 0 122 -10.5t91 -24.5q28 -9 37.5 -21.5t11.5 -37.5l19 -213q-54 34 -118.5 56t-139.5 22q-51 0 -97 -17t-80.5 -52.5t-54.5 -90t-20 -129.5t20.5 -125.5t56.5 -82t84.5 -45t104.5 -13.5q75 0 131.5 15.5t103.5 35.5z" />
<glyph unicode="&#xe8;" horiz-adv-x="1065" d="M713 584q0 229 -170 229q-85 0 -131.5 -59t-46.5 -170h348zM983 457q0 -31 -15 -42.5t-44 -11.5h-559q12 -106 80.5 -158t181.5 -52q75 0 140.5 14.5t121.5 36.5l72 -195q-26 -12 -60.5 -25.5t-79 -24t-99 -17.5t-118.5 -7q-121 0 -216.5 36.5t-161.5 102.5t-101 158.5 t-35 204.5q0 114 30.5 208.5t89.5 162.5t144.5 105.5t196.5 37.5q120 0 202.5 -41t133.5 -108q52 -71 74 -165.5t22 -197.5v-22zM563 1075q-23 0 -38 5.5t-33 25.5l-195 209q-45 48 -92 80h309q23 0 33.5 -6t21.5 -23l176 -291h-182z" />
<glyph unicode="&#xe9;" horiz-adv-x="1065" d="M713 584q0 229 -170 229q-85 0 -131.5 -59t-46.5 -170h348zM983 457q0 -31 -15 -42.5t-44 -11.5h-559q12 -106 80.5 -158t181.5 -52q75 0 140.5 14.5t121.5 36.5l72 -195q-26 -12 -60.5 -25.5t-79 -24t-99 -17.5t-118.5 -7q-121 0 -216.5 36.5t-161.5 102.5t-101 158.5 t-35 204.5q0 114 30.5 208.5t89.5 162.5t144.5 105.5t196.5 37.5q120 0 202.5 -41t133.5 -108q52 -71 74 -165.5t22 -197.5v-22zM934 1395q-23 -16 -47 -37.5t-45 -42.5l-199 -209q-19 -20 -34 -25.5t-38 -5.5h-178l187 291q11 17 21.5 23t33.5 6h299z" />
<glyph unicode="&#xea;" horiz-adv-x="1065" d="M713 584q0 229 -170 229q-85 0 -131.5 -59t-46.5 -170h348zM983 457q0 -31 -15 -42.5t-44 -11.5h-559q12 -106 80.5 -158t181.5 -52q75 0 140.5 14.5t121.5 36.5l72 -195q-26 -12 -60.5 -25.5t-79 -24t-99 -17.5t-118.5 -7q-121 0 -216.5 36.5t-161.5 102.5t-101 158.5 t-35 204.5q0 114 30.5 208.5t89.5 162.5t144.5 105.5t196.5 37.5q120 0 202.5 -41t133.5 -108q52 -71 74 -165.5t22 -197.5v-22zM766 1075q-17 0 -34 6.5t-36 28.5l-151 172l-180 -207h-172q-21 0 -21 19q0 6 2.5 10.5t5.5 9.5l240 324h227q12 0 19.5 -2t12.5 -6t9 -10.5 t10 -14.5l230 -330h-162z" />
<glyph unicode="&#xeb;" horiz-adv-x="1065" d="M705 584q0 229 -170 229q-85 0 -132 -59t-47 -170h349zM975 457q0 -31 -15.5 -42.5t-44.5 -11.5h-559q13 -106 81.5 -158t180.5 -52q76 0 141.5 14.5t121.5 36.5l71 -195q-25 -12 -59.5 -25.5t-79 -24t-99 -17.5t-118.5 -7q-122 0 -217.5 36.5t-161.5 102.5t-100.5 158.5 t-34.5 204.5q0 114 30.5 208.5t89.5 162.5t144.5 105.5t196.5 37.5q120 0 202.5 -40.5t133.5 -108.5q52 -71 74 -165.5t22 -197.5v-22zM463 1202q0 -24 -8.5 -47.5t-26 -41.5t-44 -29t-62.5 -11t-63 11t-44.5 29t-26 41.5t-8.5 47.5q0 26 8.5 50t26 42.5t44.5 29.5t63 11 t62.5 -11t44 -29.5t26 -42.5t8.5 -50zM915 1202q0 -24 -8 -47.5t-25.5 -41.5t-43.5 -29t-62 -11t-62.5 11t-44 29t-26 41.5t-8.5 47.5q0 26 8.5 50t26 42.5t44 29.5t62.5 11t62 -11t43.5 -29.5t25.5 -42.5t8 -50z" />
<glyph unicode="&#xec;" horiz-adv-x="543" d="M166 0q-31 0 -31 27v807q0 48 -9 80.5t-22 52.5h269q30 0 30 -27v-940h-237zM219 1075q-23 0 -38 5.5t-34 25.5l-194 209q-22 23 -45.5 43.5t-46.5 36.5h309q23 0 33.5 -6t21.5 -23l176 -291h-182z" />
<glyph unicode="&#xed;" horiz-adv-x="543" d="M166 0q-31 0 -31 27v807q0 48 -9 80.5t-22 52.5h269q30 0 30 -27v-940h-237zM625 1395q-23 -16 -47 -37.5t-46 -42.5l-198 -209q-19 -20 -34 -25.5t-38 -5.5h-178l186 291q11 17 22 23t34 6h299z" />
<glyph unicode="&#xee;" horiz-adv-x="543" d="M166 0q-31 0 -31 27v807q0 48 -9 80.5t-22 52.5h269q30 0 30 -27v-940h-237zM479 1075q-17 0 -34 6.5t-35 28.5l-152 172l-180 -207h-172q-21 0 -21 19q0 6 2.5 10.5t6.5 9.5l239 324h227q12 0 19.5 -2t12.5 -6t9.5 -10.5t10.5 -14.5l229 -330h-162z" />
<glyph unicode="&#xef;" horiz-adv-x="543" d="M166 0q-31 0 -31 27v807q0 48 -9 80.5t-22 52.5h269q30 0 30 -27v-940h-237zM172 1202q0 -24 -8.5 -47.5t-26 -41.5t-44 -29t-62.5 -11t-63 11t-44.5 29t-26 41.5t-8.5 47.5q0 26 8.5 50t26 42.5t44.5 29.5t63 11t62.5 -11t44 -29.5t26 -42.5t8.5 -50zM625 1202 q0 -24 -8 -47.5t-25.5 -41.5t-44 -29t-62.5 -11t-62.5 11t-44 29t-26 41.5t-8.5 47.5q0 26 8.5 50t26 42.5t44 29.5t62.5 11t62.5 -11t44 -29.5t25.5 -42.5t8 -50z" />
<glyph unicode="&#xf0;" horiz-adv-x="1155" d="M786 432q0 116 -55.5 176t-152.5 60t-153 -60t-56 -176q0 -115 56 -176t153 -61t152.5 61t55.5 176zM1065 524q0 -143 -37 -246.5t-103.5 -171t-159.5 -99.5t-204 -32q-99 0 -185 31t-149.5 89.5t-100 143.5t-36.5 193t36 193t95.5 143.5t136.5 89.5t160 31 q78 0 128.5 -16.5t76.5 -34.5q-16 55 -54 115.5t-98 119.5l-153 -125l-96 113l135 110q-32 23 -67.5 44.5t-76.5 39.5l88 168q62 -23 119.5 -51.5t108.5 -60.5l137 112l94 -112l-110 -90q155 -137 235 -315t80 -382z" />
<glyph unicode="&#xf1;" horiz-adv-x="1178" d="M795 0q-31 0 -31 27v551q0 95 -33.5 138.5t-118.5 43.5q-29 0 -58.5 -10t-56 -27t-49.5 -39.5t-38 -46.5v-637h-238q-31 0 -31 27v675q0 47 -5 94.5t-13 94.5q-6 40 -23 76h230q15 0 23.5 -5t13.5 -16q5 -12 9 -36t7 -72q21 32 51.5 60t69 48.5t84 32.5t96.5 12 q177 0 264.5 -95t87.5 -267v-629h-241zM956 1327q-48 -114 -110 -168.5t-125 -54.5q-53 0 -90 16t-66 33q-16 9 -31 18.5t-29.5 17.5t-28.5 13.5t-27 5.5q-14 0 -26.5 -1t-26 -9.5t-28 -27.5t-32.5 -54l-125 64q21 52 49.5 93t60.5 69.5t65 43.5t65 15q27 0 48.5 -5.5 t41.5 -14.5t39 -20.5t41 -23.5q34 -20 57 -31.5t45 -11.5q15 0 28 2t25.5 11.5t25.5 29t29 54.5z" />
<glyph unicode="&#xf2;" horiz-adv-x="1155" d="M786 483q0 140 -55.5 213.5t-152.5 73.5t-153 -73.5t-56 -213.5q0 -139 56 -213.5t153 -74.5t152.5 74.5t55.5 213.5zM1065 483q0 -120 -36.5 -214.5t-102 -160t-154.5 -99.5t-194 -34t-194.5 34t-155 99.5t-102 160t-36.5 214.5q0 121 36.5 215.5t102 159.5t155 99 t194.5 34t194 -34t154.5 -99t102 -159.5t36.5 -215.5zM582 1075q-23 0 -38 5.5t-34 25.5l-195 209q-21 23 -45 43.5t-47 36.5h309q23 0 34 -6t22 -23l176 -291h-182z" />
<glyph unicode="&#xf3;" horiz-adv-x="1155" d="M786 483q0 140 -55.5 213.5t-152.5 73.5t-153 -73.5t-56 -213.5q0 -139 56 -213.5t153 -74.5t152.5 74.5t55.5 213.5zM1065 483q0 -120 -36.5 -214.5t-102 -160t-154.5 -99.5t-194 -34t-194.5 34t-155 99.5t-102 160t-36.5 214.5q0 121 36.5 215.5t102 159.5t155 99 t194.5 34t194 -34t154.5 -99t102 -159.5t36.5 -215.5zM973 1395q-23 -16 -47 -37.5t-45 -42.5l-199 -209q-19 -20 -34 -25.5t-38 -5.5h-178l186 291q11 17 22 23t34 6h299z" />
<glyph unicode="&#xf4;" horiz-adv-x="1155" d="M786 483q0 140 -55.5 213.5t-152.5 73.5t-153 -73.5t-56 -213.5q0 -139 56 -213.5t153 -74.5t152.5 74.5t55.5 213.5zM1065 483q0 -120 -36.5 -214.5t-102 -160t-154.5 -99.5t-194 -34t-194.5 34t-155 99.5t-102 160t-36.5 214.5q0 121 36.5 215.5t102 159.5t155 99 t194.5 34t194 -34t154.5 -99t102 -159.5t36.5 -215.5zM803 1075q-17 0 -34 6.5t-36 28.5l-151 172l-181 -207h-172q-20 0 -20 19q0 6 2.5 10.5t5.5 9.5l240 324h227q12 0 19.5 -2t12.5 -6t9 -10.5t10 -14.5l230 -330h-162z" />
<glyph unicode="&#xf5;" horiz-adv-x="1155" d="M786 483q0 140 -55.5 213.5t-152.5 73.5t-153 -73.5t-56 -213.5q0 -139 56 -213.5t153 -74.5t152.5 74.5t55.5 213.5zM1065 483q0 -120 -36.5 -214.5t-102 -160t-154.5 -99.5t-194 -34t-194.5 34t-155 99.5t-102 160t-36.5 214.5q0 121 36.5 215.5t102 159.5t155 99 t194.5 34t194 -34t154.5 -99t102 -159.5t36.5 -215.5zM946 1327q-48 -114 -110 -168.5t-125 -54.5q-53 0 -90 16t-66 33q-16 9 -31 18.5t-29.5 17.5t-28.5 13.5t-28 5.5t-26.5 -1t-25.5 -9.5t-27.5 -27.5t-32.5 -54l-125 64q21 52 49.5 93t60 69.5t64.5 43.5t65 15 q27 0 49 -5.5t41.5 -14.5t39 -20.5t40.5 -23.5q34 -20 57.5 -31.5t45.5 -11.5q15 0 28 2t25.5 11.5t25.5 29t29 54.5z" />
<glyph unicode="&#xf6;" horiz-adv-x="1155" d="M786 483q0 140 -55.5 213.5t-152.5 73.5t-153 -73.5t-56 -213.5q0 -139 56 -213.5t153 -74.5t152.5 74.5t55.5 213.5zM1065 483q0 -120 -36.5 -214.5t-102 -160t-154.5 -99.5t-194 -34t-194.5 34t-155 99.5t-102 160t-36.5 214.5q0 121 36.5 215.5t102 159.5t155 99 t194.5 34t194 -34t154.5 -99t102 -159.5t36.5 -215.5zM479 1202q0 -24 -8.5 -47.5t-26 -41.5t-44 -29t-62.5 -11t-62.5 11t-44 29t-26 41.5t-8.5 47.5q0 26 8.5 50t26 42.5t44 29.5t62.5 11t62.5 -11t44 -29.5t26 -42.5t8.5 -50zM932 1202q0 -24 -8 -47.5t-25.5 -41.5 t-43.5 -29t-62 -11t-63 11t-44.5 29t-26 41.5t-8.5 47.5q0 26 8.5 50t26 42.5t44.5 29.5t63 11t62 -11t43.5 -29.5t25.5 -42.5t8 -50z" />
<glyph unicode="&#xf7;" d="M721 262q0 -32 -12 -59.5t-34 -48.5t-53 -33t-69 -12t-69 12t-53 33t-34 48.5t-12 59.5q0 31 12 60t34 50.5t53 34.5t69 13t69 -13t53 -34.5t34 -50.5t12 -60zM1067 575h-1008q-30 0 -30 25v201h1009q16 0 22.5 -4.5t6.5 -18.5v-203zM721 1110q0 -32 -12 -60t-34 -49 t-53 -33t-69 -12t-69 12t-53 33t-34 49t-12 60q0 31 12 60t34 50.5t53 34.5t69 13t69 -13t53 -34.5t34 -50.5t12 -60z" />
<glyph unicode="&#xf8;" horiz-adv-x="1155" d="M797 483q0 22 -2.5 46.5t-6.5 47t-9 42t-9 32.5l-291 -428q16 -14 45 -25.5t54 -11.5q102 0 160.5 77.5t58.5 219.5zM668 758q-19 8 -44 13t-46 5q-104 0 -163 -75t-59 -218q0 -40 6 -81t15 -72zM1065 483q0 -120 -36.5 -214.5t-102 -160t-154.5 -99.5t-194 -34 q-121 0 -220 45l-90 -137l-135 80l96 146q-66 66 -102.5 159.5t-36.5 214.5t36.5 215.5t102 159.5t155 99t194.5 34q57 0 108.5 -10t97.5 -29l82 125l135 -86l-83 -125q69 -66 108 -162t39 -221z" />
<glyph unicode="&#xf9;" horiz-adv-x="1178" d="M811 0q-28 0 -31 27l-8 88q-15 -24 -41 -47.5t-62 -42t-82.5 -30t-103.5 -11.5q-152 0 -241 77q-101 89 -101 281v492q0 48 -9 80.5t-21 52.5h272q31 0 31 -27v-551q0 -50 9 -84t27.5 -55t47.5 -30t69 -9q66 0 117.5 28.5t83.5 73.5v521q0 48 -9 80.5t-22 52.5h269 q30 0 30 -27v-940h-225zM561 1075q-23 0 -38 5.5t-34 25.5l-194 209q-22 23 -45.5 43.5t-46.5 36.5h309q23 0 33.5 -6t21.5 -23l176 -291h-182z" />
<glyph unicode="&#xfa;" horiz-adv-x="1178" d="M811 0q-28 0 -31 27l-8 88q-15 -24 -41 -47.5t-62 -42t-82.5 -30t-103.5 -11.5q-152 0 -241 77q-101 89 -101 281v492q0 48 -9 80.5t-21 52.5h272q31 0 31 -27v-551q0 -50 9 -84t27.5 -55t47.5 -30t69 -9q66 0 117.5 28.5t83.5 73.5v521q0 48 -9 80.5t-22 52.5h269 q30 0 30 -27v-940h-225zM983 1395q-23 -16 -46.5 -37.5t-45.5 -42.5l-199 -209q-18 -20 -33 -25.5t-38 -5.5h-179l187 291q11 17 21.5 23t33.5 6h299z" />
<glyph unicode="&#xfb;" horiz-adv-x="1178" d="M811 0q-28 0 -31 27l-8 88q-15 -24 -41 -47.5t-62 -42t-82.5 -30t-103.5 -11.5q-152 0 -241 77q-101 89 -101 281v492q0 48 -9 80.5t-21 52.5h272q31 0 31 -27v-551q0 -50 9 -84t27.5 -55t47.5 -30t69 -9q66 0 117.5 28.5t83.5 73.5v521q0 48 -9 80.5t-22 52.5h269 q30 0 30 -27v-940h-225zM786 1075q-17 0 -34 6.5t-35 28.5l-152 172l-180 -207h-172q-20 0 -20 19q0 6 2.5 10.5t5.5 9.5l239 324h228q12 0 19 -2t12 -6t9.5 -10.5t10.5 -14.5l229 -330h-162z" />
<glyph unicode="&#xfc;" horiz-adv-x="1178" d="M811 0q-28 0 -31 27l-8 88q-15 -24 -41 -47.5t-62 -42t-82.5 -30t-103.5 -11.5q-152 0 -241 77q-101 89 -101 281v492q0 48 -9 80.5t-21 52.5h272q31 0 31 -27v-551q0 -50 9 -84t27.5 -55t47.5 -30t69 -9q66 0 117.5 28.5t83.5 73.5v521q0 48 -9 80.5t-22 52.5h269 q30 0 30 -27v-940h-225zM510 1202q0 -24 -8.5 -47.5t-26 -41.5t-44 -29t-62.5 -11t-63 11t-44.5 29t-26 41.5t-8.5 47.5q0 26 8.5 50t26 42.5t44.5 29.5t63 11t62.5 -11t44 -29.5t26 -42.5t8.5 -50zM963 1202q0 -24 -8 -47.5t-25.5 -41.5t-44 -29t-62.5 -11t-62.5 11t-44 29 t-26 41.5t-8.5 47.5q0 26 8.5 50t26 42.5t44 29.5t62.5 11t62.5 -11t44 -29.5t25.5 -42.5t8 -50z" />
<glyph unicode="&#xfd;" horiz-adv-x="1075" d="M1075 967q-18 -13 -31 -40.5t-28 -64.5l-369 -930q-63 -158 -156.5 -238.5t-234.5 -80.5q-45 0 -80.5 4t-63 10.5t-49.5 15t-40 17.5l65 203q32 -14 62.5 -22.5t68.5 -8.5q53 0 97 33.5t73 105.5l37 90l-365 803q-15 34 -29.5 62t-31.5 41h283q25 0 32 -9t15 -28 l231 -582l209 582q7 19 15 28t34 9h256zM973 1395q-23 -16 -47 -37.5t-45 -42.5l-199 -209q-19 -20 -34 -25.5t-38 -5.5h-178l186 291q11 17 22 23t34 6h299z" />
<glyph unicode="&#xfe;" horiz-adv-x="1176" d="M807 487q0 84 -17.5 138.5t-47 87t-68 45t-80.5 12.5q-57 0 -103 -23t-81 -55v-422q37 -35 83 -55t103 -20q47 0 86 19t66.5 56t43 91.5t15.5 125.5zM1085 494q0 -123 -35 -219.5t-95 -163t-141 -101.5t-173 -35q-57 0 -118 14.5t-113 55.5v-422h-238q-31 0 -31 27v1622 q0 48 -9 80.5t-21 52.5l208 14q20 2 36 3t24 1q31 0 31 -26v-494q43 38 108 63t150 25q89 0 165 -30.5t132 -92t88 -155t32 -219.5z" />
<glyph unicode="&#xff;" horiz-adv-x="1075" d="M1075 967q-18 -13 -31 -40.5t-28 -64.5l-369 -930q-63 -158 -156.5 -238.5t-234.5 -80.5q-45 0 -80.5 4t-63 10.5t-49.5 15t-40 17.5l65 203q32 -14 62.5 -22.5t68.5 -8.5q53 0 97 33.5t73 105.5l37 90l-365 803q-15 34 -29.5 62t-31.5 41h283q25 0 32 -9t15 -28 l231 -582l209 582q7 19 15 28t34 9h256zM459 1202q0 -24 -8.5 -47.5t-26 -41.5t-44.5 -29t-63 -11t-62.5 11t-44 29t-26 41.5t-8.5 47.5q0 26 8.5 50t26 42.5t44 29.5t62.5 11t63 -11t44.5 -29.5t26 -42.5t8.5 -50zM911 1202q0 -24 -8 -47.5t-25.5 -41.5t-43.5 -29t-62 -11 t-62.5 11t-44 29t-26 41.5t-8.5 47.5q0 26 8.5 50t26 42.5t44 29.5t62.5 11t62 -11t43.5 -29.5t25.5 -42.5t8 -50z" />
<glyph unicode="&#x152;" horiz-adv-x="2165" d="M1176 702q0 120 -28.5 213t-79.5 157t-121 97t-152 33q-83 0 -153 -30.5t-121 -92.5t-80 -156t-29 -221q0 -126 29 -220.5t80 -156.5t121 -93t153 -31q82 0 152 34t121 98.5t79.5 157.5t28.5 211zM1196 0q-31 0 -31 27v114q-11 -12 -40.5 -40.5t-80.5 -58.5t-124.5 -52.5 t-171.5 -22.5q-151 0 -269.5 54t-200 151.5t-124.5 232.5t-43 297t47.5 297.5t134 233t207.5 151.5t268 54q75 0 141 -14.5t119 -38.5t90 -53.5t53 -59.5v133h818q23 0 31.5 -8.5t11.5 -28.5l32 -233q-20 12 -52.5 21t-80.5 9h-483v-313h551v-270q-20 12 -52.5 21t-80.5 9 h-418v-372h506q48 0 80.5 9t52.5 21v-270h-891z" />
<glyph unicode="&#x153;" horiz-adv-x="1761" d="M786 483q0 140 -55.5 213.5t-152.5 73.5t-153 -73.5t-56 -213.5q0 -139 56 -213.5t153 -74.5t152.5 74.5t55.5 213.5zM1409 584q0 229 -170 229q-85 0 -131.5 -59t-46.5 -170h348zM1679 457q0 -31 -15 -42.5t-44 -11.5h-559q12 -106 81 -158t181 -52q75 0 140.5 14.5 t121.5 36.5l72 -195q-26 -12 -60.5 -25.5t-78.5 -24t-98.5 -17.5t-119.5 -7q-120 0 -213 38t-159 116q-66 -80 -155 -117t-195 -37q-105 0 -194.5 34t-155 99.5t-102 160t-36.5 214.5q0 121 36.5 215.5t102 159.5t155 99t194.5 34q103 0 190.5 -35t153.5 -112 q57 75 140.5 111t199.5 36q109 0 189.5 -40.5t131.5 -108.5q53 -71 74.5 -165.5t21.5 -197.5v-22z" />
<glyph unicode="&#x178;" horiz-adv-x="1288" d="M1288 1405q-26 -9 -45 -32.5t-41 -57.5l-428 -672v-643h-252q-30 0 -30 27v612l-404 676q-20 34 -40 57.5t-48 32.5h313q16 0 26.5 -1.5t18 -5t13 -10t10.5 -16.5l268 -479l289 479q12 20 24 26.5t44 6.5h282zM541 1663q0 -25 -8.5 -48t-26 -41t-44.5 -29t-63 -11 t-62.5 11t-44 29t-26 41t-8.5 48q0 26 8.5 50t26 42.5t44 29.5t62.5 11t63 -11t44.5 -29.5t26 -42.5t8.5 -50zM993 1663q0 -25 -8 -48t-25.5 -41t-43.5 -29t-62 -11t-62.5 11t-44 29t-26 41t-8.5 48q0 26 8.5 50t26 42.5t44 29.5t62.5 11t62 -11t43.5 -29.5t25.5 -42.5 t8 -50z" />
<glyph unicode="&#x2c6;" horiz-adv-x="1106" d="M766 1075q-17 0 -34 6.5t-36 28.5l-151 172l-180 -207h-172q-21 0 -21 19q0 6 2.5 10.5t5.5 9.5l240 324h227q12 0 19.5 -2t12.5 -6t9 -10.5t10 -14.5l230 -330h-162z" />
<glyph unicode="&#x2dc;" horiz-adv-x="1106" d="M936 1327q-48 -114 -110.5 -168.5t-125.5 -54.5q-52 0 -89 16t-66 33q-16 9 -31 18.5t-29.5 17.5t-28.5 13.5t-28 5.5t-26.5 -1t-26 -9.5t-28 -27.5t-32.5 -54l-125 64q22 52 50.5 93t60 69.5t64.5 43.5t65 15q27 0 49 -5.5t41.5 -14.5t39 -20.5t40.5 -23.5 q34 -20 57.5 -31.5t44.5 -11.5q15 0 28 2t25.5 11.5t26 29t29.5 54.5z" />
<glyph unicode="&#x2000;" horiz-adv-x="949" />
<glyph unicode="&#x2001;" horiz-adv-x="1898" />
<glyph unicode="&#x2002;" horiz-adv-x="949" />
<glyph unicode="&#x2003;" horiz-adv-x="1898" />
<glyph unicode="&#x2004;" horiz-adv-x="632" />
<glyph unicode="&#x2005;" horiz-adv-x="474" />
<glyph unicode="&#x2006;" horiz-adv-x="316" />
<glyph unicode="&#x2007;" horiz-adv-x="316" />
<glyph unicode="&#x2008;" horiz-adv-x="237" />
<glyph unicode="&#x2009;" horiz-adv-x="379" />
<glyph unicode="&#x200a;" horiz-adv-x="105" />
<glyph unicode="&#x2010;" horiz-adv-x="760" d="M684 424v223q0 14 -6.5 18.5t-22.5 4.5h-579v-221q0 -14 7.5 -19.5t22.5 -5.5h578z" />
<glyph unicode="&#x2011;" horiz-adv-x="760" d="M684 424v223q0 14 -6.5 18.5t-22.5 4.5h-579v-221q0 -14 7.5 -19.5t22.5 -5.5h578z" />
<glyph unicode="&#x2012;" horiz-adv-x="760" d="M684 424v223q0 14 -6.5 18.5t-22.5 4.5h-579v-221q0 -14 7.5 -19.5t22.5 -5.5h578z" />
<glyph unicode="&#x2013;" horiz-adv-x="1024" d="M0 424v211h1024v-211h-1024z" />
<glyph unicode="&#x2014;" horiz-adv-x="2048" d="M0 424v211h2048v-211h-2048z" />
<glyph unicode="&#x2018;" horiz-adv-x="559" d="M459 930q0 -34 -12 -64t-34.5 -52.5t-55 -36t-72.5 -13.5q-39 0 -72 13.5t-57 40t-37 65.5t-13 90q0 78 24.5 153.5t58 138t68 108t54.5 65.5l129 -84q-15 -20 -34.5 -50t-37.5 -65t-32 -74t-19 -78q41 -9 68 -26t43.5 -38t23.5 -45t7 -48z" />
<glyph unicode="&#x2019;" horiz-adv-x="559" d="M459 1229q0 -78 -24.5 -153.5t-58 -138.5t-68 -108.5t-54.5 -64.5l-129 84q15 20 34.5 49.5t37.5 65t32 74.5t19 77q-41 9 -68 26t-43.5 38.5t-23.5 45.5t-7 48q0 34 12 64t34.5 52.5t55 36t73.5 13.5q39 0 71.5 -13.5t56.5 -40t37 -65.5t13 -90z" />
<glyph unicode="&#x201a;" horiz-adv-x="559" d="M459 94q0 -78 -24.5 -153.5t-58 -138t-68 -108.5t-54.5 -65l-129 84q15 20 34.5 50t37.5 65t32 74t19 78q-41 9 -68 26t-43.5 38t-23.5 45t-7 48q0 34 12 64t34.5 52.5t55 36t73.5 13.5q39 0 71.5 -13.5t56.5 -40t37 -65.5t13 -90z" />
<glyph unicode="&#x201c;" horiz-adv-x="1038" d="M455 930q0 -34 -12 -64t-34.5 -52.5t-55 -36t-72.5 -13.5q-39 0 -72 13.5t-57 40t-37 65.5t-13 90q0 78 24.5 153.5t58 138t68 108t54.5 65.5l129 -84q-15 -20 -34.5 -50t-37.5 -65t-32 -74t-19 -78q41 -9 68 -26t43.5 -38t23.5 -45t7 -48zM936 930q0 -34 -12 -64 t-34.5 -52.5t-55 -36t-72.5 -13.5q-79 0 -128.5 53.5t-49.5 155.5q0 52 11.5 103.5t29.5 98.5t41 89.5t45.5 76.5t43 59t33.5 38l130 -84q-15 -20 -34.5 -50t-37.5 -65t-32.5 -74t-18.5 -78q40 -9 67.5 -26t43.5 -38t23 -45t7 -48z" />
<glyph unicode="&#x201d;" horiz-adv-x="1038" d="M455 1229q0 -78 -24.5 -153.5t-58 -138.5t-68 -108.5t-54.5 -64.5l-129 84q15 20 34.5 49.5t37.5 65t32 74.5t19 77q-41 9 -68 26t-43.5 38.5t-23.5 45.5t-7 48q0 34 12 64t34.5 52.5t54.5 36t73 13.5q39 0 72 -13.5t57 -40t37 -65.5t13 -90zM936 1229 q0 -78 -24.5 -153.5t-58 -138.5t-68 -108.5t-54.5 -64.5l-129 84q15 20 34.5 49.5t37.5 65t32 74.5t19 77q-41 9 -68 26t-43.5 38.5t-23 45.5t-6.5 48q0 34 12 64t34.5 52.5t54.5 36t73 13.5q39 0 71.5 -13.5t56.5 -40t37 -65.5t13 -90z" />
<glyph unicode="&#x201e;" horiz-adv-x="1038" d="M455 94q0 -78 -24.5 -153.5t-58 -138t-68 -108.5t-54.5 -65l-129 84q15 20 34.5 50t37.5 65t32 74t19 78q-41 9 -68 26t-43.5 38t-23.5 45t-7 48q0 34 12 64t34.5 52.5t54.5 36t73 13.5q39 0 72 -13.5t57 -40t37 -65.5t13 -90zM936 94q0 -78 -24.5 -153.5t-58 -138 t-68 -108.5t-54.5 -65l-129 84q15 20 34.5 50t37.5 65t32 74t19 78q-41 9 -68 26t-43.5 38t-23 45t-6.5 48q0 34 12 64t34.5 52.5t54.5 36t73 13.5q39 0 71.5 -13.5t56.5 -40t37 -65.5t13 -90z" />
<glyph unicode="&#x2022;" horiz-adv-x="1004" d="M840 702q0 -70 -26.5 -131.5t-72.5 -107t-107.5 -72t-131.5 -26.5t-131.5 26.5t-107.5 72t-72.5 107t-26.5 131.5t26.5 131.5t72.5 107.5t107.5 72.5t131.5 26.5t131.5 -26.5t107.5 -72.5t72.5 -107.5t26.5 -131.5z" />
<glyph unicode="&#x2026;" horiz-adv-x="2048" d="M514 137q0 -33 -12.5 -62.5t-35.5 -51.5t-55.5 -35t-72.5 -13t-72.5 13t-55.5 35t-35.5 51.5t-12.5 62.5t12.5 63t35.5 53t55.5 36.5t72.5 13.5t72.5 -13.5t55.5 -36.5t35.5 -53t12.5 -63zM1192 137q0 -33 -12.5 -62.5t-35.5 -51.5t-55.5 -35t-72.5 -13t-72.5 13 t-55.5 35t-35.5 51.5t-12.5 62.5t12.5 63t35.5 53t55.5 36.5t72.5 13.5t72.5 -13.5t55.5 -36.5t35.5 -53t12.5 -63zM1870 137q0 -33 -12.5 -62.5t-35.5 -51.5t-55.5 -35t-72.5 -13t-72.5 13t-55.5 35t-35.5 51.5t-12.5 62.5t12.5 63t35.5 53t55.5 36.5t72.5 13.5t72.5 -13.5 t55.5 -36.5t35.5 -53t12.5 -63z" />
<glyph unicode="&#x202f;" horiz-adv-x="379" />
<glyph unicode="&#x2039;" horiz-adv-x="662" d="M322 184l-273 336l273 336h290l-272 -336l272 -336h-290z" />
<glyph unicode="&#x203a;" horiz-adv-x="662" d="M340 184h-291l273 336l-273 336h291l272 -336z" />
<glyph unicode="&#x205f;" horiz-adv-x="474" />
<glyph unicode="&#x20ac;" horiz-adv-x="1282" d="M1204 59q-41 -20 -90 -36t-101.5 -27.5t-104.5 -18t-97 -6.5q-128 0 -227.5 33t-173 93t-122 144t-73.5 185h-131q-16 0 -23.5 5.5t-7.5 19.5v143h133q-1 7 -1.5 20t-1 28t-1 28t-0.5 20q0 19 1 44.5t3 43.5h-102q-16 0 -23.5 5.5t-7.5 19.5v143h168q20 90 67 173 t118 146.5t164.5 101.5t205.5 38q52 0 97.5 -6t81.5 -14t62 -17t40 -16t23 -12.5t14.5 -12t8 -15t3.5 -20.5l16 -221q-10 9 -36.5 27t-66 35t-91.5 30t-113 13q-67 0 -120 -19t-93 -50.5t-65.5 -73.5t-36.5 -87h393q15 0 21 -4t8 -18l24 -146h-489q-1 -8 -2 -21t-2 -26.5 t-1.5 -26t-0.5 -18.5q0 -10 1 -23.5t2.5 -27t2.5 -25t2 -16.5h352q15 0 21 -4.5t8 -18.5l18 -145h-360q34 -109 114 -165t207 -56q41 0 83.5 4.5t83 13.5t78 22t69.5 29z" />
<glyph unicode="&#x2122;" horiz-adv-x="1655" d="M668 1229q-20 22 -84 22h-131v-620h-164q-27 0 -27 24v596h-178q-29 0 -29 23v131h576q19 0 22 -23zM1616 1405q-11 -14 -17 -37t-6 -51v-686h-153q-27 0 -27 24v502l-188 -450h-101l-178 450v-526h-153q-27 0 -27 24v662q0 28 -6 51t-17 37h238q19 0 24 -5.5t11 -19.5 l164 -372l178 397h258z" />
<glyph unicode="&#x25fc;" horiz-adv-x="965" d="M0 965h965v-965h-965v965z" />
<glyph unicode="&#xfb01;" horiz-adv-x="1190" d="M813 0q-31 0 -31 27v729h-317v-756h-238q-30 0 -30 27v729h-115q-16 0 -22.5 4t-6.5 18v84l144 92v97q0 94 32 164t87 116.5t128.5 69t155.5 22.5q91 0 151 -16t91 -29q24 -9 32.5 -19t10.5 -32l20 -201q-21 9 -49 22t-60 25t-66.5 20.5t-67.5 8.5q-197 0 -197 -158v-77 h555q31 0 31 -27v-940h-238z" />
<glyph unicode="&#xfb02;" horiz-adv-x="1212" d="M834 0q-31 0 -31 27v1020q0 46 -14.5 77t-38.5 49t-55.5 25.5t-65.5 7.5q-76 0 -120 -40t-44 -124v-75h149q16 0 22.5 -7.5t8.5 -21.5l27 -182h-207v-756h-238q-30 0 -30 27v729h-115q-16 0 -22.5 4t-6.5 18v84l144 92v80q0 89 31.5 161t91 122.5t144 78t191.5 27.5 q201 0 308.5 -91.5t107.5 -274.5v-1057h-237z" />
</font>
</defs>
</svg>
